<svg width="250" height="250" viewBox="0 0 250 250" fill="none" xmlns="http://www.w3.org/2000/svg">
<circle cx="125" cy="125" r="125" fill="#BCFFD7"/>
<g clip-path="url(#clip0_1133_2)">
<path d="M160.92 106.434C163.48 102.337 165.001 97.3357 165.001 91.9186C165.001 78.0926 155.194 66.8846 143.096 66.8846C142.917 66.8846 142.743 66.9104 142.565 66.9154C138.828 60.3503 132.364 56 125.001 56C116.459 56 109.124 61.8508 105.861 70.2299C92.7702 74.1382 83.0957 87.7055 83.0957 103.891C83.0957 112.791 86.0406 120.884 90.846 127.041C90.763 128.02 90.7145 129.01 90.7145 130.014C90.7145 146.845 102.654 160.49 117.381 160.49C118.986 160.49 125.379 160.326 126.905 160.013L127.551 152.471C131.324 154.808 135.645 156.136 140.238 156.136C154.966 156.136 166.905 142.492 166.905 125.66C166.905 118.368 164.658 111.679 160.92 106.434Z" fill="#1FBF5F"/>
<path d="M126.905 149.035C123.849 149.936 120.465 149.905 116.848 147.953C111.95 145.309 108.4 139.935 107.919 133.768C107.73 131.346 107.982 129.019 108.586 126.872C108.824 126.027 108.518 125.13 107.918 124.568C103.235 120.179 100.239 113.529 100.239 106.068C100.239 96.3851 105.277 88.0676 112.513 84.297C113.268 83.9035 113.755 83.0455 113.672 82.1019C113.609 81.3923 113.572 80.6742 113.572 79.9454C113.572 68.6048 120.478 59.128 129.74 56.6514C128.215 56.2464 126.635 56 125.001 56C116.459 56 109.124 61.8508 105.861 70.2299C92.7702 74.1382 83.0957 87.7055 83.0957 103.891C83.0957 112.791 86.0406 120.884 90.846 127.041C90.763 128.02 90.7145 129.01 90.7145 130.014C90.7145 146.845 102.654 160.49 117.381 160.49C118.986 160.49 125.379 160.326 126.905 160.013V153.361V149.035H126.905Z" fill="#1FBF5F"/>
<path d="M123.096 149.605C123.035 149.605 122.976 149.596 122.915 149.595L121.191 190.966H132.62L130.933 150.486C130.873 149.036 129.603 147.991 128.414 148.501C126.759 149.212 124.969 149.605 123.096 149.605Z" fill="#AF6E5A"/>
<path d="M130.933 150.486C130.873 149.036 129.603 147.991 128.414 148.501C126.759 149.212 124.969 149.606 123.096 149.606C123.035 149.606 122.976 149.596 122.915 149.595L121.191 190.966H126.906V155.528C126.906 154.591 127.43 153.759 128.208 153.463L131.013 152.395L130.933 150.486Z" fill="#965A50"/>
<path d="M136.429 193.143H117.381C116.329 193.143 115.477 192.169 115.477 190.966C115.477 189.763 116.329 188.789 117.381 188.789H136.429C137.481 188.789 138.334 189.763 138.334 190.966C138.334 192.169 137.481 193.143 136.429 193.143Z" fill="#1FBF5F"/>
</g>
<defs>
<clipPath id="clip0_1133_2">
<rect width="120" height="137.143" fill="white" transform="translate(65 56)"/>
</clipPath>
</defs>
</svg>