<svg width="48" height="48" viewBox="0 0 48 48" fill="none" xmlns="http://www.w3.org/2000/svg">
<path d="M40.7508 16.4729C39.691 16.4729 38.685 16.7014 37.7779 17.1105C37.3344 17.3104 36.8327 16.9929 36.8327 16.5066V14.3946C36.8327 10.3912 33.5873 7.14551 29.5836 7.14551C26.9091 7.14551 24.5745 8.5946 23.3184 10.7497C23.1247 11.0819 22.6955 11.1789 22.374 10.9687C21.2362 10.2253 19.8768 9.79284 18.4163 9.79284C14.4129 9.79284 11.1672 13.0386 11.1672 17.042V18.9598C11.1672 19.4461 10.6655 19.7636 10.222 19.5637C9.31492 19.1546 8.30894 18.9261 7.24913 18.9261C3.24535 18.9261 0 22.1718 0 26.1753V27.958C0 31.9614 3.24535 35.2071 7.24913 35.2071H40.7508C44.7546 35.2071 47.9999 31.9617 47.9999 27.958V23.722C47.9999 19.7186 44.7546 16.4729 40.7508 16.4729Z" fill="#147CFC"/>
<path d="M41.031 16.4802C41.8085 17.6349 42.2626 19.0258 42.2626 20.5225V24.7584C42.2626 28.7622 39.0168 32.0076 35.0131 32.0076H1.51172C1.41724 32.0076 1.32385 32.0039 1.23047 32.0006C2.53235 33.9346 4.7417 35.2072 7.24841 35.2072H40.7501C44.7535 35.2072 47.9993 31.9614 47.9993 27.958V23.722C47.9993 19.8127 44.9044 16.6278 41.031 16.4802Z" fill="#147CFC"/>
<path d="M18.4314 19.1519C20.6147 19.1519 21.8108 20.5222 21.8108 21.3352C21.8108 21.8695 21.5204 22.1943 20.9513 22.1943C19.8479 22.1943 20.1735 20.6848 18.4314 20.6848C17.2354 20.6848 16.2484 21.7183 16.2484 23.5299C16.2484 25.0511 16.8519 26.375 18.501 26.375C19.9991 26.375 19.9644 24.7725 20.8817 24.7725C21.3461 24.7725 21.8108 25.0394 21.8108 25.5038C21.8108 26.7115 20.3474 27.9076 18.501 27.9076C15.8884 27.9076 14.3438 26.4098 14.3438 23.5299C14.3438 21.1726 15.7372 19.1519 18.4314 19.1519Z" fill="#E8F2FF"/>
<path d="M26.8499 19.1519C29.5902 19.1519 31.0767 20.9752 31.0767 23.4255C31.0767 25.7828 29.7063 27.908 26.8499 27.908C23.8539 27.908 22.623 25.9572 22.623 23.4255C22.623 20.9752 24.1091 19.1519 26.8499 19.1519ZM26.8499 26.375C28.5802 26.375 29.1724 25.0277 29.1724 23.4252C29.1724 21.8226 28.4059 20.6848 26.8499 20.6848C25.2938 20.6848 24.5273 21.8226 24.5273 23.4252C24.5273 25.0277 25.0616 26.375 26.8499 26.375Z" fill="#E8F2FF"/>
<path d="M35.2938 29.5332C35.7373 29.5332 35.9222 29.7625 35.9222 30.1539C35.9222 30.5458 35.7373 30.7747 35.2938 30.7747H32.2784C31.887 30.7747 31.6504 30.4791 31.6504 30.1613C31.6504 29.7031 31.761 29.4666 33.1211 28.5206L33.8231 28.0328C34.1853 27.7816 34.3182 27.5747 34.3182 27.2719C34.3182 26.9097 34.0747 26.6731 33.6755 26.6731C32.8329 26.6731 33.269 27.7003 32.4337 27.7003C31.9016 27.7003 31.7094 27.4048 31.7094 26.9836C31.7094 26.2739 32.4041 25.5203 33.7198 25.5203C35.2942 25.5203 35.8409 26.3776 35.8409 27.1979C35.8409 27.8186 35.5304 28.2621 34.8727 28.6759L33.5349 29.5186V29.5332H35.2938Z" fill="#E8F2FF"/>
<path d="M41.8943 6.43835C41.8943 7.35352 41.1523 8.09546 40.2372 8.09546C39.322 8.09546 38.5801 7.35352 38.5801 6.43835C38.5801 5.52319 39.322 4.78125 40.2372 4.78125C41.1523 4.78125 41.8943 5.52319 41.8943 6.43835Z" fill="#147CFC"/>
<path d="M10.4265 42.0531C10.4265 42.6632 9.93176 43.1576 9.32166 43.1576C8.71155 43.1576 8.2168 42.6632 8.2168 42.0531C8.2168 41.4426 8.71155 40.9482 9.32166 40.9482C9.93176 40.9482 10.4265 41.4426 10.4265 42.0531Z" fill="#147CFC"/>
<path d="M18.0773 39.4977C18.0773 40.6582 17.1365 41.5986 15.9763 41.5986C14.8158 41.5986 13.875 40.6582 13.875 39.4977C13.875 38.3372 14.8158 37.3967 15.9763 37.3967C17.1365 37.3967 18.0773 38.3372 18.0773 39.4977Z" fill="#147CFC"/>
<path d="M40.6742 4.8418C40.7797 5.05969 40.8405 5.30322 40.8405 5.5614C40.8405 6.47656 40.0985 7.21851 39.1833 7.21851C39.0317 7.21851 38.8856 7.19617 38.7461 7.15808C39.0142 7.71216 39.58 8.09558 40.2369 8.09558C41.1521 8.09558 41.894 7.35364 41.894 6.43848C41.894 5.67493 41.377 5.03369 40.6742 4.8418Z" fill="#147CFC"/>
<path d="M16.7196 37.5325C16.9122 37.85 17.0228 38.2224 17.0228 38.6205C17.0228 39.781 16.0824 40.7214 14.9219 40.7214C14.6597 40.7214 14.4088 40.6731 14.1777 40.5856C14.5458 41.1927 15.2134 41.5985 15.9755 41.5985C17.1356 41.5985 18.0764 40.6577 18.0764 39.4976C18.0764 38.5992 17.5125 37.8331 16.7196 37.5325Z" fill="#147CFC"/>
</svg>
