<svg width="250" height="250" viewBox="0 0 250 250" fill="none" xmlns="http://www.w3.org/2000/svg">
<g id="Group">
<path id="Vector" d="M125 250C194.036 250 250 194.036 250 125C250 55.9644 194.036 0 125 0C55.9644 0 0 55.9644 0 125C0 194.036 55.9644 250 125 250Z" fill="#F0F0F0"/>
<g id="Group_2">
<g id="Group_3">
<path id="Vector_2" d="M192.304 197.732H57.7237C56.7153 197.732 55.875 196.912 55.875 195.883V152.711C55.875 151.702 56.6943 150.862 57.7237 150.862H192.304C193.312 150.862 194.152 151.681 194.152 152.711V195.883C194.152 196.891 193.333 197.732 192.304 197.732ZM59.5725 194.055H190.476V154.559H59.5725V194.055Z" fill="#989BAE"/>
<path id="Vector_3" d="M103.431 197.732H70.4268C69.4184 197.732 68.5781 196.912 68.5781 195.883V165.421C68.5781 164.412 69.3974 163.572 70.4268 163.572H103.431C104.439 163.572 105.28 164.391 105.28 165.421V195.883C105.28 196.891 104.46 197.732 103.431 197.732ZM72.2546 194.055H101.582V167.27H72.2546V194.055Z" fill="#989BAE"/>
<path id="Vector_4" d="M103.431 177.437H70.4268C69.4184 177.437 68.5781 176.618 68.5781 175.589C68.5781 174.559 69.3974 173.74 70.4268 173.74H103.431C104.439 173.74 105.28 174.559 105.28 175.589C105.28 176.618 104.46 177.437 103.431 177.437Z" fill="#989BAE"/>
<path id="Vector_5" d="M103.431 187.585H70.4268C69.4184 187.585 68.5781 186.765 68.5781 185.736C68.5781 184.706 69.3974 183.887 70.4268 183.887H103.431C104.439 183.887 105.28 184.706 105.28 185.736C105.28 186.765 104.46 187.585 103.431 187.585Z" fill="#989BAE"/>
<path id="Vector_6" d="M128.811 179.959H116.122C115.114 179.959 114.273 179.139 114.273 178.11V165.421C114.273 164.412 115.093 163.572 116.122 163.572H128.811C129.82 163.572 130.66 164.391 130.66 165.421C130.66 166.45 129.841 167.27 128.811 167.27H117.95V176.282H128.811C129.82 176.282 130.66 177.102 130.66 178.131C130.66 179.16 129.841 179.98 128.811 179.98V179.959Z" fill="#989BAE"/>
<path id="Vector_7" d="M141.53 179.958H128.841C127.833 179.958 126.992 179.139 126.992 178.109C126.992 177.08 127.812 176.261 128.841 176.261H141.53C142.538 176.261 143.379 177.08 143.379 178.109C143.379 179.139 142.559 179.958 141.53 179.958Z" fill="#989BAE"/>
<path id="Vector_8" d="M141.53 167.27H128.841C127.833 167.27 126.992 166.45 126.992 165.421C126.992 164.391 127.812 163.572 128.841 163.572H141.53C142.538 163.572 143.379 164.391 143.379 165.421C143.379 166.45 142.559 167.27 141.53 167.27Z" fill="#989BAE"/>
<path id="Vector_9" d="M154.217 179.958H141.528C140.52 179.958 139.68 179.139 139.68 178.109C139.68 177.08 140.499 176.261 141.528 176.261H154.217C155.226 176.261 156.066 177.08 156.066 178.109C156.066 179.139 155.247 179.958 154.217 179.958Z" fill="#989BAE"/>
<path id="Vector_10" d="M154.217 167.27H141.528C140.52 167.27 139.68 166.45 139.68 165.421C139.68 164.391 140.499 163.572 141.528 163.572H154.217C155.226 163.572 156.066 164.391 156.066 165.421C156.066 166.45 155.247 167.27 154.217 167.27Z" fill="#989BAE"/>
<path id="Vector_11" d="M166.905 179.958H154.216C153.208 179.958 152.367 179.139 152.367 178.109C152.367 177.08 153.187 176.261 154.216 176.261H166.905C167.913 176.261 168.754 177.08 168.754 178.109C168.754 179.139 167.934 179.958 166.905 179.958Z" fill="#989BAE"/>
<path id="Vector_12" d="M166.905 167.27H154.216C153.208 167.27 152.367 166.45 152.367 165.421C152.367 164.391 153.187 163.572 154.216 163.572H166.905C167.913 163.572 168.754 164.391 168.754 165.421C168.754 166.45 167.934 167.27 166.905 167.27Z" fill="#989BAE"/>
<path id="Vector_13" d="M179.608 179.959H166.919C165.911 179.959 165.07 179.139 165.07 178.11C165.07 177.081 165.89 176.261 166.919 176.261H177.78V167.249H166.919C165.911 167.249 165.07 166.429 165.07 165.4C165.07 164.37 165.89 163.551 166.919 163.551H179.608C180.616 163.551 181.457 164.37 181.457 165.4V178.089C181.457 179.097 180.638 179.938 179.608 179.938V179.959Z" fill="#989BAE"/>
<path id="Vector_14" d="M175.785 154.58H160.554C160.049 154.58 159.566 154.37 159.209 153.992C158.852 153.614 158.684 153.131 158.705 152.626L161.247 111.996C161.31 111.03 162.108 110.274 163.075 110.274H173.222C174.188 110.274 174.986 111.03 175.049 111.996L177.591 152.626C177.612 153.131 177.444 153.635 177.087 153.992C176.73 154.37 176.247 154.58 175.743 154.58H175.785ZM162.507 150.904H173.831L171.52 113.95H164.818L162.507 150.904Z" fill="#989BAE"/>
<path id="Vector_15" d="M95.805 154.58H70.4268C69.4184 154.58 68.5991 153.761 68.5781 152.752V134.979C68.5781 134.286 68.9352 133.656 69.5445 133.34C70.1537 133.025 70.889 133.067 71.4563 133.467L96.8554 151.24C97.5067 151.702 97.8008 152.542 97.5487 153.298C97.2966 154.055 96.6033 154.58 95.805 154.58ZM72.2546 150.904H89.9647L72.2546 138.509V150.904Z" fill="#989BAE"/>
<path id="Vector_16" d="M122.477 154.58H97.0987C96.0903 154.58 95.271 153.761 95.25 152.752V134.979C95.25 134.286 95.6282 133.656 96.2374 133.34C96.8466 133.025 97.5819 133.067 98.1492 133.467L123.548 151.24C124.2 151.702 124.494 152.542 124.242 153.298C123.99 154.055 123.296 154.58 122.498 154.58H122.477ZM98.9265 150.904H116.637L98.9265 138.509V150.904Z" fill="#989BAE"/>
<path id="Vector_17" d="M147.867 154.58H122.489C121.481 154.58 120.662 153.761 120.641 152.752V134.979C120.641 134.286 121.019 133.656 121.628 133.34C122.237 133.025 122.973 133.067 123.54 133.467L148.939 151.24C149.59 151.702 149.884 152.542 149.632 153.298C149.38 154.055 148.687 154.58 147.889 154.58H147.867ZM124.317 150.904H142.027L124.317 138.509V150.904Z" fill="#989BAE"/>
</g>
<g id="Group_4">
<path id="Vector_18" d="M170.345 79.3701C170.598 78.0046 170.724 76.618 170.724 75.2315C170.724 62.5634 160.409 52.2483 147.74 52.2483C139.61 52.2483 132.152 56.513 128.014 63.4458C125.409 61.1348 122.089 59.8743 118.56 59.8743C110.682 59.8743 104.274 66.2819 104.274 74.1601C104.274 75.0844 104.358 76.0088 104.526 76.8911C98.7699 78.8449 94.8203 84.3071 94.8203 90.4206C94.8203 98.2987 101.228 104.706 109.106 104.706C112.614 104.706 120.808 104.895 128.056 105.063C136.144 105.252 143.098 105.4 146.27 105.4C146.438 105.4 146.627 105.379 146.795 105.316C150.367 105.316 153.035 105.252 155.493 105.189C157.614 105.147 159.568 105.084 161.837 105.084C169.715 105.084 176.123 98.6769 176.123 90.7987C176.123 86.2399 173.959 81.9962 170.325 79.3071L170.345 79.3701ZM108.35 79.139C108.623 78.6769 108.665 78.1306 108.497 77.6264C108.119 76.534 107.93 75.3575 107.93 74.1811C107.93 68.3197 112.698 63.5718 118.56 63.5718C121.879 63.5718 124.946 65.0844 126.984 67.7315C127.383 68.2567 128.035 68.5298 128.644 68.4248C129.274 68.3407 129.841 67.9416 130.114 67.3533C133.224 60.4206 140.156 55.9458 147.74 55.9458C158.392 55.9458 167.047 64.6012 167.047 75.2525C167.047 76.7861 166.858 78.2987 166.501 79.7903C166.312 80.5676 166.648 81.3869 167.341 81.7861C170.556 83.7399 172.467 87.1222 172.467 90.8827C172.467 96.7441 167.698 101.492 161.837 101.492C159.526 101.492 157.551 101.534 155.219 101.597C152.782 101.66 150.135 101.723 146.564 101.723C146.396 101.723 146.228 101.744 146.06 101.807C142.719 101.807 135.303 101.639 128.14 101.471C120.871 101.303 112.635 101.114 109.106 101.114C103.245 101.114 98.4758 96.3449 98.4758 90.4836C98.4758 85.3785 102.11 81.0088 107.089 80.0634C107.614 79.9584 108.056 79.6432 108.329 79.1811L108.35 79.139Z" fill="#989BAE"/>
<path id="Vector_19" d="M121.519 86.0718C122.149 86.7651 122.926 87.2903 123.809 87.6685C124.691 88.0466 125.699 88.2357 126.75 88.2357C127.968 88.2357 129.04 88.0256 129.943 87.6265C130.825 87.2273 131.603 86.6601 132.233 85.9248L132.695 85.3996L131.519 84.1181C131.099 83.6349 130.363 83.5928 129.817 84.055C129.607 84.2441 129.418 84.3912 129.208 84.5382C129.019 84.6643 128.809 84.7693 128.598 84.8323C128.367 84.9164 128.136 84.9794 127.863 85.0214C127.128 85.1265 126.141 85.1054 125.363 84.7903C124.901 84.6012 124.502 84.3281 124.166 83.95C123.83 83.5718 123.536 83.0886 123.325 82.5424C123.115 81.9752 123.01 81.3029 123.01 80.5676C123.01 79.8323 123.115 79.1601 123.304 78.5928C123.493 78.0466 123.767 77.5634 124.124 77.1853C124.46 76.8071 124.859 76.534 125.342 76.3239C126.246 75.9458 127.506 75.9458 128.178 76.1769C128.536 76.2819 128.809 76.408 129.019 76.513C129.25 76.6391 129.439 76.7651 129.565 76.8702C130.132 77.2903 130.72 77.2903 131.141 77.0172C131.288 76.9122 131.435 76.7651 131.498 76.6601L132.506 75.2525L132.002 74.7693C131.372 74.1811 130.636 73.6979 129.817 73.3617C128.136 72.6685 125.762 72.6685 123.977 73.4038C123.073 73.7819 122.275 74.3281 121.624 75.0004C120.972 75.6727 120.468 76.492 120.111 77.4584C119.754 78.4038 119.586 79.4332 119.586 80.5256C119.586 81.6181 119.754 82.6685 120.09 83.5928C120.426 84.5382 120.93 85.3575 121.561 86.0508L121.519 86.0718Z" fill="#989BAE"/>
<path id="Vector_20" d="M131.883 80.5678C131.883 81.6812 132.072 82.7106 132.408 83.635C132.765 84.5804 133.269 85.3997 133.942 86.072C134.593 86.7652 135.391 87.3115 136.316 87.6686C137.219 88.0468 138.227 88.2358 139.341 88.2358C140.454 88.2358 141.442 88.0468 142.366 87.6686C143.29 87.2905 144.089 86.7442 144.74 86.072C145.391 85.3997 145.895 84.5804 146.274 83.614C146.631 82.6896 146.799 81.6392 146.799 80.5468C146.799 79.4543 146.61 78.4039 146.274 77.4795C145.916 76.5342 145.412 75.7148 144.74 75.0215C144.068 74.3283 143.269 73.782 142.366 73.4039C140.538 72.6476 138.143 72.6476 136.337 73.4039C135.412 73.782 134.635 74.3283 133.963 75.0215C133.311 75.6938 132.807 76.5342 132.429 77.4795C132.072 78.4039 131.904 79.4333 131.904 80.5468L131.883 80.5678ZM135.328 80.5678C135.328 79.8325 135.433 79.1602 135.622 78.593C135.811 78.0468 136.085 77.5636 136.421 77.1854C136.757 76.8073 137.156 76.5342 137.66 76.3241C138.143 76.114 138.711 76.0089 139.32 76.0089C139.929 76.0089 140.496 76.114 141 76.3241C141.484 76.5342 141.883 76.8073 142.24 77.1854C142.576 77.5426 142.849 78.0257 143.038 78.593C143.227 79.1602 143.332 79.8325 143.332 80.5678C143.332 81.3031 143.227 81.9753 143.038 82.5426C142.849 83.1098 142.576 83.572 142.24 83.9291C141.904 84.3073 141.505 84.5804 141.021 84.7694C140.034 85.1686 138.669 85.1686 137.66 84.7694C137.177 84.5804 136.778 84.2863 136.442 83.9291C136.106 83.551 135.832 83.0888 135.643 82.5426C135.454 81.9753 135.349 81.3031 135.349 80.5678H135.328Z" fill="#989BAE"/>
<path id="Vector_21" d="M146.657 88.4879L147.96 88.7189C148.275 88.761 148.527 88.7189 148.779 88.5719C148.947 88.4668 149.179 88.2778 149.326 87.8156C149.326 87.7316 149.368 87.6475 149.41 87.5845C149.452 87.5215 149.494 87.4584 149.557 87.4164C149.62 87.3744 149.683 87.3324 149.788 87.2904C149.956 87.2274 150.208 87.2274 150.376 87.2904C150.439 87.3114 150.502 87.3534 150.649 87.5425C150.67 87.6055 150.691 87.7105 150.691 87.8366C150.691 87.9837 150.691 88.1307 150.628 88.2358C150.586 88.3828 150.502 88.5299 150.418 88.6769C150.313 88.845 150.208 88.9921 150.061 89.1601C149.893 89.3492 149.725 89.5383 149.515 89.7274L146.994 92.2694C146.868 92.3954 146.763 92.5635 146.679 92.7316C146.616 92.8996 146.574 93.0677 146.574 93.2358V93.866L146.195 94.2442L146.574 94.1391V94.3492H153.401V92.9626C153.401 92.6475 153.275 92.3744 153.065 92.1643C153.065 92.1643 153.065 92.1643 153.044 92.1433V91.8282H150.733L151.363 91.1769C151.595 90.9458 151.805 90.7148 152.015 90.5047C152.246 90.2526 152.435 90.0005 152.603 89.7484C152.792 89.4753 152.939 89.1601 153.044 88.866C153.17 88.5299 153.212 88.1727 153.212 87.7946C153.212 87.3324 153.128 86.9122 152.96 86.5551C152.792 86.1769 152.561 85.8618 152.267 85.6097C151.994 85.3576 151.637 85.1475 151.237 85.0215C150.481 84.7694 149.599 84.7694 148.863 85.0215C148.485 85.1475 148.149 85.3366 147.834 85.5887C147.519 85.8408 147.267 86.1559 147.078 86.5131C146.889 86.8702 146.763 87.2694 146.679 87.7316L146.574 88.4879H146.657Z" fill="#989BAE"/>
</g>
</g>
</g>
</svg>
