<svg width="54" height="35" viewBox="0 0 54 35" fill="none" xmlns="http://www.w3.org/2000/svg">
<g id="Group">
<g id="Group_2">
<path id="Vector" d="M49.7332 17.8597C49.8992 16.9605 49.9822 16.0474 49.9822 15.1344C49.9822 6.79249 43.1897 0 34.8478 0C29.4941 0 24.583 2.8083 21.8577 7.37352C20.1423 5.85178 17.9565 5.02174 15.6324 5.02174C10.4446 5.02174 6.2253 9.24111 6.2253 14.4289C6.2253 15.0375 6.28063 15.6462 6.3913 16.2273C2.60078 17.5138 0 21.1107 0 25.1364C0 30.3241 4.21935 34.5435 9.4071 34.5435C11.7174 34.5435 17.1127 34.668 21.8854 34.7787C27.2115 34.9032 31.7905 35 33.8794 35C33.9901 35 34.1146 34.9862 34.2253 34.9447C36.5771 34.9447 38.334 34.9032 39.9526 34.8617C41.3498 34.834 42.6364 34.7925 44.1304 34.7925C49.3182 34.7925 53.5375 30.5731 53.5375 25.3854C53.5375 22.3834 52.1126 19.5889 49.7194 17.8182L49.7332 17.8597ZM8.90909 17.7075C9.08894 17.4032 9.11661 17.0435 9.00594 16.7115C8.75693 15.9921 8.6324 15.2174 8.6324 14.4427C8.6324 10.583 11.7727 7.45652 15.6324 7.45652C17.8182 7.45652 19.8379 8.45257 21.1798 10.1957C21.4427 10.5415 21.8715 10.7213 22.2727 10.6522C22.6878 10.5968 23.0612 10.334 23.2411 9.94664C25.2885 5.38142 29.8538 2.43478 34.8478 2.43478C41.8617 2.43478 47.5613 8.13439 47.5613 15.1482C47.5613 16.1581 47.4367 17.1542 47.2016 18.1364C47.0771 18.6482 47.2984 19.1877 47.7549 19.4506C49.8715 20.7372 51.1304 22.9644 51.1304 25.4407C51.1304 29.3004 47.9901 32.4269 44.1304 32.4269C42.6087 32.4269 41.3083 32.4545 39.7727 32.496C38.168 32.5375 36.4249 32.5791 34.0731 32.5791C33.9625 32.5791 33.8518 32.5929 33.7411 32.6344C31.5415 32.6344 26.6581 32.5237 21.9407 32.413C17.1541 32.3024 11.7312 32.1779 9.4071 32.1779C5.54741 32.1779 2.4071 29.0375 2.4071 25.1779C2.4071 21.8162 4.80039 18.9387 8.07905 18.3162C8.4249 18.247 8.7154 18.0395 8.89525 17.7352L8.90909 17.7075Z" fill="#989BAE"/>
<path id="Vector_2" d="M17.5696 22.2729C17.9846 22.7294 18.4965 23.0753 19.0775 23.3243C19.6585 23.5733 20.3225 23.6978 21.0142 23.6978C21.8166 23.6978 22.5222 23.5595 23.117 23.2966C23.6981 23.0338 24.2099 22.6603 24.6249 22.1761L24.9293 21.8302L24.1546 20.9863C23.8779 20.6682 23.3937 20.6405 23.034 20.9448C22.8957 21.0693 22.7712 21.1662 22.6328 21.263C22.5083 21.346 22.37 21.4152 22.2316 21.4567C22.0795 21.512 21.9273 21.5535 21.7474 21.5812C21.2632 21.6504 20.6131 21.6365 20.1012 21.429C19.7969 21.3045 19.534 21.1247 19.3127 20.8757C19.0913 20.6267 18.8977 20.3085 18.7593 19.9488C18.621 19.5753 18.5518 19.1326 18.5518 18.6484C18.5518 18.1642 18.621 17.7215 18.7455 17.348C18.87 16.9883 19.0498 16.6701 19.285 16.4211C19.5063 16.1721 19.7692 15.9923 20.0874 15.8539C20.6822 15.6049 21.5123 15.6049 21.955 15.7571C22.1902 15.8263 22.37 15.9093 22.5083 15.9784C22.6605 16.0614 22.785 16.1444 22.868 16.2136C23.2415 16.4903 23.6289 16.4903 23.9056 16.3105C24.0024 16.2413 24.0992 16.1444 24.1407 16.0753L24.8048 15.1484L24.4727 14.8302C24.0577 14.4429 23.5735 14.1247 23.034 13.9033C21.9273 13.4468 20.3641 13.4468 19.1882 13.931C18.5933 14.18 18.0676 14.5397 17.6388 14.9824C17.2099 15.4251 16.8779 15.9646 16.6427 16.601C16.4075 17.2235 16.2969 17.9014 16.2969 18.6207C16.2969 19.3401 16.4075 20.0318 16.6289 20.6405C16.8502 21.263 17.1822 21.8025 17.5972 22.2591L17.5696 22.2729Z" fill="#989BAE"/>
<path id="Vector_3" d="M24.3984 18.6482C24.3984 19.3814 24.5229 20.0592 24.7443 20.6679C24.9795 21.2905 25.3115 21.83 25.7542 22.2727C26.183 22.7292 26.7087 23.0889 27.3174 23.324C27.9123 23.5731 28.5763 23.6976 29.3095 23.6976C30.0427 23.6976 30.6929 23.5731 31.3016 23.324C31.9103 23.075 32.436 22.7154 32.8649 22.2727C33.2937 21.83 33.6257 21.2905 33.8747 20.6541C34.1099 20.0454 34.2206 19.3537 34.2206 18.6343C34.2206 17.915 34.0961 17.2233 33.8747 16.6146C33.6396 15.992 33.3076 15.4525 32.8649 14.996C32.4222 14.5395 31.8965 14.1798 31.3016 13.9308C30.0981 13.4327 28.521 13.4327 27.3313 13.9308C26.7226 14.1798 26.2107 14.5395 25.768 14.996C25.3392 15.4387 25.0071 15.992 24.7581 16.6146C24.523 17.2233 24.4123 17.9011 24.4123 18.6343L24.3984 18.6482ZM26.6672 18.6482C26.6672 18.164 26.7364 17.7213 26.8609 17.3478C26.9854 16.9881 27.1652 16.6699 27.3866 16.4209C27.6079 16.1719 27.8708 15.992 28.2028 15.8537C28.521 15.7154 28.8945 15.6462 29.2957 15.6462C29.6969 15.6462 30.0704 15.7154 30.4024 15.8537C30.7206 15.992 30.9834 16.1719 31.2186 16.4209C31.44 16.6561 31.6198 16.9742 31.7443 17.3478C31.8688 17.7213 31.938 18.164 31.938 18.6482C31.938 19.1323 31.8688 19.575 31.7443 19.9486C31.6198 20.3221 31.44 20.6264 31.2186 20.8616C30.9973 21.1106 30.7344 21.2905 30.4162 21.415C29.766 21.6778 28.8668 21.6778 28.2028 21.415C27.8846 21.2905 27.6218 21.0968 27.4004 20.8616C27.1791 20.6126 26.9992 20.3082 26.8747 19.9486C26.7502 19.575 26.6811 19.1323 26.6811 18.6482H26.6672Z" fill="#989BAE"/>
<path id="Vector_4" d="M34.1403 23.8635L34.998 24.0157C35.2055 24.0434 35.3715 24.0157 35.5375 23.9189C35.6482 23.8497 35.8004 23.7252 35.8972 23.4208C35.8972 23.3655 35.9249 23.3102 35.9525 23.2687C35.9802 23.2272 36.0079 23.1857 36.0494 23.158C36.0909 23.1303 36.1324 23.1027 36.2016 23.075C36.3123 23.0335 36.4783 23.0335 36.5889 23.075C36.6304 23.0888 36.6719 23.1165 36.7688 23.241C36.7826 23.2825 36.7964 23.3517 36.7964 23.4347C36.7964 23.5315 36.7964 23.6284 36.7549 23.6975C36.7273 23.7944 36.6719 23.8912 36.6166 23.988C36.5474 24.0987 36.4783 24.1956 36.3814 24.3062C36.2708 24.4307 36.1601 24.5552 36.0217 24.6797L34.3616 26.3537C34.2786 26.4367 34.2095 26.5473 34.1541 26.658C34.1126 26.7687 34.085 26.8793 34.085 26.99V27.405L33.8359 27.654L34.085 27.5849V27.7232H38.581V26.8102C38.581 26.6027 38.498 26.4228 38.3597 26.2845C38.3597 26.2845 38.3597 26.2845 38.3458 26.2706V26.0631H36.8241L37.2391 25.6343C37.3913 25.4821 37.5296 25.3299 37.668 25.1916C37.8202 25.0256 37.9447 24.8596 38.0553 24.6936C38.1798 24.5137 38.2767 24.3062 38.3458 24.1125C38.4288 23.8912 38.4565 23.656 38.4565 23.407C38.4565 23.1027 38.4012 22.826 38.2905 22.5908C38.1798 22.3418 38.0277 22.1343 37.834 21.9683C37.6541 21.8023 37.419 21.6639 37.1561 21.5809C36.6581 21.4149 36.0771 21.4149 35.5929 21.5809C35.3439 21.6639 35.1225 21.7884 34.915 21.9544C34.7075 22.1205 34.5415 22.328 34.417 22.5631C34.2925 22.7983 34.2095 23.0612 34.1541 23.3655L34.085 23.8635H34.1403Z" fill="#989BAE"/>
</g>
</g>
</svg>
