<svg width="250" height="250" viewBox="0 0 250 250" fill="none" xmlns="http://www.w3.org/2000/svg">
<g id="Group">
<path id="Vector" d="M125 250C194.036 250 250 194.036 250 125C250 55.9644 194.036 0 125 0C55.9644 0 0 55.9644 0 125C0 194.036 55.9644 250 125 250Z" fill="#E8F2FF"/>
<path id="Vector_2" d="M173.622 101.996C173.244 101.218 172.32 100.672 171.374 100.672H141.92L152.109 54.8317C152.278 54.0544 152.11 53.2771 151.605 52.6678C151.122 52.0586 150.387 51.7224 149.609 51.7224H95.1977C93.9372 51.6804 92.8448 52.4577 92.5507 53.6972L76.2272 124.412C76.1641 124.643 76.1431 124.853 76.1641 125.084C76.1641 125.756 76.4583 126.386 76.9625 126.87C77.4667 127.353 78.1599 127.626 78.7692 127.563H108.496L98.0759 195.357C97.9078 196.491 98.5171 197.605 99.5885 198.067C99.9246 198.193 100.282 198.277 100.681 198.277C101.353 198.235 102.089 197.794 102.509 197.164L173.349 104.517C173.874 103.823 173.958 102.836 173.601 101.996H173.622ZM82.0885 122.437L97.2356 56.8065H146.395L135.576 105.462L135.513 105.777H166.332L104.63 186.197L114.441 122.731L114.483 122.437H82.0675H82.0885Z" fill="#147CFC"/>
</g>
</svg>
