<svg width="25" height="26" viewBox="0 0 25 26" fill="none" xmlns="http://www.w3.org/2000/svg">
<circle opacity="0.1" cx="12.5" cy="13.166" r="12.5" fill="#1FBF5F"/>
<path d="M7.74595 13.705L9.7709 10.3914C10.6737 8.91413 11.1251 8.17548 11.7062 7.92367C12.2135 7.70383 12.7893 7.70383 13.2966 7.92367C13.8777 8.17548 14.3291 8.91413 15.2319 10.3914L15.2319 10.3914L17.2569 13.705C18.2295 15.2965 18.7158 16.0923 18.6584 16.7479C18.6084 17.3195 18.3153 17.8421 17.8537 18.1828C17.3241 18.5736 16.3915 18.5736 14.5263 18.5736H10.4764C8.61125 18.5736 7.67866 18.5736 7.14913 18.1828C6.68748 17.8421 6.39439 17.3195 6.34439 16.7479C6.28704 16.0923 6.77334 15.2965 7.74595 13.705L7.74595 13.705Z" fill="#1FBF5F"/>
<path d="M12.502 10.8428V14.3567" stroke="white" stroke-width="2" stroke-linejoin="round"/>
<path d="M12.502 15.4111V16.8167" stroke="white" stroke-width="2" stroke-linejoin="round"/>
</svg>
