<svg width="250" height="250" viewBox="0 0 250 250" fill="none" xmlns="http://www.w3.org/2000/svg">
<circle cx="125" cy="125" r="125" fill="#F0F0F0"/>
<path d="M173.856 101.124C170.765 101.124 167.831 101.764 165.185 102.909C163.892 103.469 162.429 102.58 162.429 101.219V95.3051C162.429 84.0956 152.963 75.0076 141.285 75.0076C133.485 75.0076 126.676 79.065 123.012 85.0994C122.447 86.0295 121.195 86.3012 120.257 85.7126C116.939 83.6311 112.974 82.4201 108.714 82.4201C97.0377 82.4201 87.571 91.5081 87.571 102.718V108.088C87.571 109.449 86.1077 110.338 84.8142 109.778C82.1685 108.633 79.2344 107.993 76.1433 107.993C64.4656 107.993 55 117.081 55 128.291V133.282C55 144.492 64.4656 153.58 76.1433 153.58H173.856C185.534 153.58 195 144.493 195 133.282V121.422C195 110.212 185.534 101.124 173.856 101.124Z" fill="#989AAC"/>
<path d="M174.677 101.145C176.944 104.378 178.269 108.272 178.269 112.463V124.324C178.269 135.534 168.802 144.621 157.124 144.621H59.4121C59.1365 144.621 58.8642 144.611 58.5918 144.602C62.3889 150.017 68.8329 153.58 76.1441 153.58H173.857C185.534 153.58 195.001 144.492 195.001 133.282V121.422C195.001 110.476 185.974 101.558 174.677 101.145Z" fill="#989AAC"/>
<path d="M108.756 108.625C115.124 108.625 118.613 112.462 118.613 114.738C118.613 116.234 117.766 117.144 116.106 117.144C112.888 117.144 113.837 112.917 108.756 112.917C105.268 112.917 102.389 115.811 102.389 120.883C102.389 125.143 104.15 128.85 108.959 128.85C113.329 128.85 113.227 124.363 115.903 124.363C117.257 124.363 118.613 125.11 118.613 126.41C118.613 129.792 114.345 133.141 108.959 133.141C101.339 133.141 96.834 128.947 96.834 120.883C96.834 114.283 100.898 108.625 108.756 108.625Z" fill="#E8F2FF"/>
<path d="M133.313 108.625C141.305 108.625 145.641 113.73 145.641 120.591C145.641 127.192 141.644 133.142 133.313 133.142C124.574 133.142 120.984 127.68 120.984 120.591C120.984 113.73 125.319 108.625 133.313 108.625ZM133.313 128.85C138.359 128.85 140.087 125.077 140.087 120.59C140.087 116.103 137.851 112.917 133.313 112.917C128.774 112.917 126.539 116.103 126.539 120.59C126.539 125.077 128.097 128.85 133.313 128.85Z" fill="#E8F2FF"/>
<path d="M157.939 137.693C159.233 137.693 159.772 138.335 159.772 139.431C159.772 140.528 159.233 141.169 157.939 141.169H149.144C148.003 141.169 147.312 140.341 147.312 139.451C147.312 138.168 147.635 137.506 151.602 134.857L153.65 133.492C154.706 132.788 155.094 132.209 155.094 131.361C155.094 130.347 154.383 129.684 153.219 129.684C150.761 129.684 152.034 132.561 149.597 132.561C148.045 132.561 147.484 131.733 147.484 130.554C147.484 128.567 149.511 126.456 153.348 126.456C157.94 126.456 159.535 128.857 159.535 131.154C159.535 132.892 158.629 134.134 156.711 135.292L152.809 137.652V137.693H157.939Z" fill="#E8F2FF"/>
<path d="M177.192 73.0275C177.192 75.5899 175.028 77.6674 172.359 77.6674C169.689 77.6674 167.525 75.5899 167.525 73.0275C167.525 70.465 169.689 68.3876 172.359 68.3876C175.028 68.3876 177.192 70.465 177.192 73.0275Z" fill="#989AAC"/>
<path d="M85.4138 172.749C85.4138 174.457 83.9707 175.841 82.1913 175.841C80.4118 175.841 78.9688 174.457 78.9688 172.749C78.9688 171.039 80.4118 169.655 82.1913 169.655C83.9707 169.655 85.4138 171.039 85.4138 172.749Z" fill="#989AAC"/>
<path d="M107.723 165.593C107.723 168.843 104.979 171.476 101.596 171.476C98.2108 171.476 95.4668 168.843 95.4668 165.593C95.4668 162.344 98.2108 159.711 101.596 159.711C104.979 159.711 107.723 162.344 107.723 165.593Z" fill="#989AAC"/>
<path d="M173.633 68.5568C173.941 69.1669 174.118 69.8488 174.118 70.5717C174.118 73.1341 171.954 75.2115 169.285 75.2115C168.843 75.2115 168.417 75.149 168.01 75.0424C168.792 76.5938 170.442 77.6674 172.358 77.6674C175.027 77.6674 177.191 75.5899 177.191 73.0275C177.191 70.8895 175.683 69.0941 173.633 68.5568Z" fill="#989AAC"/>
<path d="M103.765 160.091C104.327 160.98 104.65 162.023 104.65 163.138C104.65 166.387 101.907 169.02 98.522 169.02C97.7572 169.02 97.0255 168.885 96.3516 168.64C97.425 170.34 99.3722 171.476 101.595 171.476C104.979 171.476 107.723 168.842 107.723 165.593C107.723 163.078 106.078 160.933 103.765 160.091Z" fill="#989AAC"/>
</svg>