<svg width="250" height="250" viewBox="0 0 250 250" fill="none" xmlns="http://www.w3.org/2000/svg">
<g id="Group">
<path id="Vector" d="M125 250C194.036 250 250 194.036 250 125C250 55.9644 194.036 0 125 0C55.9644 0 0 55.9644 0 125C0 194.036 55.9644 250 125 250Z" fill="#FFF1E5"/>
<g id="Group_2">
<path id="Vector_2" d="M125.004 68.6343C138.87 68.6343 152.252 73.7394 162.588 82.9831L165.866 79.3276C142.609 58.5293 107.42 58.5293 84.1641 79.3276L87.4414 82.9831C97.7775 73.7394 111.16 68.6133 125.025 68.6343H125.004Z" fill="#FF7000"/>
<path id="Vector_3" d="M125.008 181.366C108.831 181.366 93.4322 174.412 82.739 162.269L79.0625 165.504C101.457 190.882 140.176 193.319 165.554 170.924C167.466 169.223 169.294 167.416 170.974 165.504L167.298 162.269C156.584 174.391 141.205 181.345 125.029 181.366H125.008Z" fill="#FF7000"/>
<path id="Vector_4" d="M166.1 118.046C166.478 120.336 166.667 122.668 166.667 125C166.667 129.243 166.016 133.445 164.756 137.5C163.852 136.365 162.718 135.462 161.436 134.811C158.159 133.151 154.672 131.89 151.1 131.071C161.226 122.08 162.13 106.575 153.117 96.4493C145.701 88.1089 133.579 85.84 123.642 90.9241C119.041 86.9325 112.088 87.4367 108.096 92.0375C107.151 93.1089 106.436 94.3694 105.995 95.735C99.9867 94.7476 94.2935 98.8232 93.3061 104.832C93.201 105.42 93.159 106.008 93.159 106.596C93.159 108.046 93.4531 109.495 93.9993 110.819C93.8523 110.903 93.7052 110.966 93.5582 111.05C92.1926 111.764 90.617 112.584 89.5246 114.096C88.4321 115.609 88.138 117.332 87.8859 118.865C87.8019 119.517 87.6548 120.168 87.4657 120.798C87.2556 121.386 86.9825 121.953 86.6884 122.521C85.9951 123.907 85.1968 125.504 85.1968 127.437C85.1968 129.369 85.9951 130.945 86.6884 132.353C86.9825 132.899 87.2346 133.487 87.4657 134.075C87.6548 134.706 87.7809 135.357 87.8859 136.008C88.138 137.542 88.4321 139.264 89.5246 140.777C90.638 142.29 92.1926 143.109 93.5582 143.823C94.1464 144.117 94.7136 144.432 95.2598 144.79C95.764 145.189 96.2472 145.609 96.6884 146.071C97.8019 147.164 99.0624 148.403 100.869 148.991C102.613 149.559 104.335 149.306 105.869 149.075C106.541 148.949 107.214 148.886 107.886 148.865C108.558 148.886 109.23 148.949 109.903 149.075C110.05 149.075 110.197 149.117 110.344 149.138C109.882 149.874 109.546 150.693 109.356 151.554C108.894 153.382 109.293 155.315 110.428 156.827C112.718 159.79 117.13 160.588 120.911 158.697C129.693 154.285 140.029 154.285 148.81 158.697C148.957 158.76 149.083 158.823 149.23 158.886C142.172 163.928 133.726 166.638 125.05 166.638C102.067 166.638 83.3901 147.941 83.3901 124.979C83.3901 102.017 102.088 83.319 125.05 83.319C134.188 83.298 143.075 86.2812 150.302 91.8484C157.403 97.2896 162.571 104.832 165.071 113.403L169.777 112.038C166.983 102.458 161.184 94.0123 153.264 87.9409C145.176 81.7224 135.239 78.382 125.029 78.4031C99.3565 78.4031 78.4531 99.2854 78.4531 124.979C78.4531 150.672 99.3355 171.554 125.029 171.554C137.004 171.554 148.516 166.932 157.172 158.655C157.97 158.193 158.684 157.584 159.251 156.848C159.504 156.533 159.714 156.197 159.882 155.84C167.445 147.332 171.604 136.365 171.583 125C171.583 122.395 171.373 119.811 170.932 117.248L166.1 118.067V118.046ZM161.583 141.869C161.709 142.269 161.646 142.71 161.415 143.067C160.575 144.159 158.642 144.369 157.004 143.55C149.356 139.706 140.575 138.718 132.256 140.756H132.214C129.63 141.407 127.109 142.332 124.735 143.55C123.096 144.369 121.163 144.159 120.323 143.067C120.113 142.71 120.05 142.269 120.155 141.869C120.344 141.05 121.058 139.916 122.508 139.18C134.062 133.361 147.676 133.361 159.23 139.18C160.68 139.916 161.394 141.05 161.583 141.869ZM154.42 112.752C154.42 119.979 150.449 126.638 144.083 130.042C139.188 129.706 134.272 130.147 129.525 131.344C130.134 130.147 130.491 128.802 130.512 127.458C130.512 125.525 129.714 123.949 129.02 122.542C128.726 121.995 128.474 121.407 128.243 120.819C128.138 120.483 128.054 120.126 127.991 119.79C131.877 123.55 138.096 123.445 141.856 119.559C145.617 115.672 145.512 109.453 141.625 105.693C137.739 101.932 131.52 102.038 127.76 105.924C125.995 107.752 125.008 110.189 125.008 112.731V112.836C124.125 112.143 123.159 111.533 122.151 111.05C121.562 110.756 120.995 110.441 120.449 110.084C120.302 109.979 120.134 109.832 119.966 109.685C125.743 107.731 128.831 101.47 126.856 95.693C126.772 95.4409 126.667 95.1678 126.562 94.9157C129.146 93.7182 131.962 93.1089 134.798 93.1089C145.617 93.1089 154.398 101.89 154.398 112.71L154.42 112.752ZM129.903 112.752C129.903 110.042 132.088 107.857 134.798 107.857C137.508 107.857 139.693 110.042 139.693 112.752C139.693 115.462 137.508 117.647 134.798 117.647C132.088 117.647 129.903 115.441 129.903 112.752ZM116.415 93.151C119.798 93.151 122.55 95.903 122.55 99.2854C122.55 102.668 119.798 105.42 116.415 105.42C113.033 105.42 110.281 102.668 110.281 99.2854C110.281 95.903 113.033 93.172 116.415 93.151ZM104.167 100.504C104.609 100.504 105.05 100.546 105.47 100.651C105.848 103.739 107.529 106.512 110.05 108.298C109.125 111.554 105.743 113.445 102.487 112.542C99.2304 111.617 97.3397 108.235 98.243 104.979C98.9783 102.332 101.394 100.504 104.146 100.504H104.167ZM107.844 144.012C106.92 144.012 106.016 144.117 105.113 144.264C104.02 144.432 103.012 144.58 102.361 144.369C101.646 144.138 100.911 143.403 100.113 142.626C99.5035 141.995 98.8313 141.386 98.117 140.861C97.3817 140.357 96.6044 139.895 95.8061 139.495C94.8187 138.991 93.8943 138.508 93.4741 137.92C93.054 137.353 92.8859 136.323 92.6968 135.231C92.5708 134.348 92.3817 133.466 92.1086 132.605C91.8145 131.785 91.4573 130.966 91.0582 130.21C90.554 129.222 90.0708 128.277 90.0708 127.5C90.0708 126.722 90.554 125.777 91.0372 124.79C91.4573 124.012 91.7935 123.214 92.0876 122.395C92.3397 121.533 92.5498 120.651 92.6758 119.769C92.8649 118.676 93.033 117.647 93.4531 117.08C93.8733 116.491 94.8187 116.008 95.7851 115.504C96.1212 115.315 96.4783 115.147 96.8355 114.937C101.394 118.97 108.348 118.571 112.403 114.012C113.159 113.151 113.789 112.185 114.251 111.134C114.714 111.512 115.155 111.932 115.575 112.353C116.184 112.983 116.856 113.592 117.571 114.117C118.306 114.622 119.083 115.084 119.882 115.483C120.869 115.987 121.793 116.47 122.214 117.059C122.634 117.626 122.802 118.655 122.991 119.748C123.117 120.63 123.306 121.512 123.579 122.374C123.873 123.193 124.23 124.012 124.63 124.769C125.134 125.777 125.617 126.701 125.617 127.479C125.617 128.256 125.134 129.201 124.651 130.189C124.23 130.966 123.894 131.764 123.6 132.584C123.516 132.836 123.432 133.109 123.369 133.424C122.34 133.844 121.331 134.327 120.323 134.832C117.802 136.113 115.953 138.34 115.407 140.819C115.239 141.533 115.197 142.269 115.26 142.983C114.609 143.634 113.978 144.18 113.369 144.369C112.718 144.58 111.688 144.432 110.617 144.264C109.714 144.117 108.789 144.012 107.886 144.012H107.844ZM150.953 154.348C140.806 149.243 128.81 149.222 118.663 154.348C117.025 155.168 115.092 154.958 114.251 153.865C114.041 153.508 113.978 153.067 114.083 152.668C114.272 151.848 114.987 150.714 116.436 149.979C117.529 149.432 118.642 148.928 119.777 148.466C122.13 149.264 124.714 149.075 126.92 147.941C128.852 146.953 130.89 146.197 132.991 145.651C134.356 145.588 135.743 145.609 137.109 145.672C142.697 145.987 148.159 147.458 153.159 149.979C154.609 150.714 155.323 151.848 155.512 152.668C155.554 152.878 155.575 153.088 155.554 153.298C155.134 153.739 154.714 154.18 154.272 154.622C153.18 154.979 151.962 154.895 150.932 154.348H150.953Z" fill="#FF7000"/>
<path id="Vector_5" d="M193.629 58.8235V83.3403H186.276V58.8235H181.381V83.3403H174.028V58.8235H169.133V99.2647C169.133 103.445 172.158 107.017 176.276 107.731L174.07 180.819C174.07 181.008 174.07 181.197 174.07 181.387C174.07 186.807 178.461 191.197 183.881 191.197C189.301 191.197 193.692 186.807 193.692 181.387C193.692 181.197 193.692 181.008 193.692 180.819L193.187 164.139L188.292 164.286L188.797 180.987C188.797 180.987 188.797 181.029 188.797 181.05C188.797 181.155 188.797 181.26 188.797 181.344C188.797 184.055 186.612 186.239 183.902 186.239C181.192 186.239 179.007 184.055 179.007 181.344C179.007 181.239 179.007 181.134 179.007 181.05C179.007 181.029 179.007 181.008 179.007 180.987L181.234 107.836H186.57L188.124 159.391L193.019 159.244L191.465 107.731C195.582 107.017 198.587 103.445 198.608 99.2647V58.8235H193.713H193.629ZM193.629 99.2647C193.629 101.302 191.99 102.941 189.952 102.941H177.704C175.666 102.941 174.028 101.302 174.028 99.2647V88.2353H193.629V99.2647Z" fill="#FF7000"/>
<path id="Vector_6" d="M73.6746 105C78.4225 100.924 81.5948 92.8361 81.5948 83.3193C81.5948 69.5798 74.9772 58.8025 66.5318 58.8025C58.0864 58.8025 51.4688 69.5588 51.4688 83.3193C51.4688 92.3739 54.3259 100.126 58.6956 104.37L58.1494 122.458L63.0444 122.605L63.5066 107.353C65.2293 107.899 67.078 107.962 68.8217 107.542L71.0486 180.966C71.0486 180.966 71.0486 181.008 71.0486 181.029C71.0486 181.134 71.0486 181.239 71.0486 181.323C71.0486 184.034 68.8637 186.218 66.1536 186.218C63.4435 186.218 61.2587 184.034 61.2587 181.323C61.2587 181.218 61.2587 181.113 61.2587 181.029C61.2587 181.008 61.2587 180.987 61.2587 180.966L62.8763 127.5L57.9814 127.353L56.3637 180.798C56.3637 180.987 56.3637 181.176 56.3637 181.366C56.3637 186.786 60.7545 191.176 66.1746 191.176C71.5948 191.176 75.9856 186.786 75.9856 181.366C75.9856 181.176 75.9856 180.987 75.9856 180.798L73.6956 105H73.6746ZM56.3847 83.3193C56.3847 71.5966 61.6368 63.7185 66.5318 63.7185C71.4267 63.7185 76.6788 71.5966 76.6788 83.3193C76.6788 95.042 71.4267 102.92 66.5318 102.92C61.6368 102.92 56.3847 95.042 56.3847 83.3193Z" fill="#FF7000"/>
<path id="Vector_7" d="M98.1695 121.755L95.7188 129.11L100.363 130.657L102.813 123.303L98.1695 121.755Z" fill="#FF7000"/>
<path id="Vector_8" d="M111.948 132.485L104.594 134.936L106.141 139.58L113.496 137.129L111.948 132.485Z" fill="#FF7000"/>
<path id="Vector_9" d="M111.645 120.516L108.93 124.589L116.289 129.495L119.004 125.422L111.645 120.516Z" fill="#FF7000"/>
</g>
</g>
</svg>
