<svg width="45" height="41" viewBox="0 0 45 41" fill="none" xmlns="http://www.w3.org/2000/svg">
<g id="Group">
<path id="Vector" d="M22.49 3.00046C26.7304 3.00046 30.8231 4.56171 33.9841 7.38866L34.9864 6.27073C27.8741 -0.0899186 17.1124 -0.0899186 10 6.27073L11.0023 7.38866C14.1633 4.56171 18.256 2.99403 22.4964 3.00046H22.49Z" fill="#FF7000"/>
<path id="Vector_2" d="M22.4888 37.4828C17.5416 37.4828 12.8321 35.3562 9.56186 31.6426L8.4375 32.632C15.2864 40.3933 27.1275 41.1386 34.8888 34.2896C35.4735 33.7692 36.0324 33.2167 36.5464 32.632L35.4221 31.6426C32.1454 35.3497 27.4424 37.4764 22.4952 37.4828H22.4888Z" fill="#FF7000"/>
<path id="Vector_3" d="M35.0547 18.1182C35.1703 18.8185 35.2282 19.5317 35.2282 20.2448C35.2282 21.5427 35.029 22.8277 34.6435 24.0677C34.3672 23.7207 34.0203 23.4444 33.6284 23.2453C32.6261 22.7377 31.5595 22.3522 30.4673 22.1016C33.5641 19.3518 33.8404 14.6102 31.0841 11.5134C28.8161 8.96272 25.1089 8.26883 22.07 9.82366C20.6629 8.60292 18.5363 8.75712 17.3155 10.1642C17.0264 10.4918 16.808 10.8773 16.673 11.295C14.8355 10.993 13.0944 12.2394 12.7924 14.0769C12.7603 14.2568 12.7474 14.4367 12.7474 14.6166C12.7474 15.0599 12.8374 15.5033 13.0044 15.908C12.9595 15.9337 12.9145 15.953 12.8695 15.9787C12.4519 16.1972 11.97 16.4477 11.6359 16.9103C11.3018 17.3729 11.2119 17.8998 11.1348 18.3688C11.1091 18.5679 11.0641 18.7671 11.0063 18.9599C10.942 19.1398 10.8585 19.3132 10.7686 19.4867C10.5565 19.9107 10.3124 20.399 10.3124 20.9901C10.3124 21.5812 10.5565 22.0631 10.7686 22.4936C10.8585 22.6606 10.9356 22.8405 11.0063 23.0204C11.0641 23.2131 11.1027 23.4123 11.1348 23.6115C11.2119 24.0805 11.3018 24.6074 11.6359 25.0699C11.9764 25.5325 12.4519 25.7831 12.8695 26.0016C13.0494 26.0915 13.2229 26.1879 13.3899 26.2971C13.5441 26.4192 13.6919 26.5477 13.8268 26.689C14.1673 27.0231 14.5528 27.4022 15.1054 27.5821C15.6386 27.7556 16.1655 27.6785 16.6345 27.6078C16.8401 27.5692 17.0457 27.55 17.2513 27.5435C17.4569 27.55 17.6625 27.5692 17.8681 27.6078C17.913 27.6078 17.958 27.6206 18.003 27.6271C17.8617 27.8519 17.7589 28.1025 17.701 28.3659C17.5597 28.9249 17.6818 29.516 18.0287 29.9786C18.729 30.8845 20.0782 31.1286 21.2347 30.5504C23.9203 29.2012 27.0814 29.2012 29.767 30.5504C29.812 30.5697 29.8505 30.5889 29.8955 30.6082C27.7367 32.1502 25.1539 32.979 22.5004 32.979C15.4716 32.979 9.75985 27.2608 9.75985 20.2384C9.75985 13.216 15.478 7.49784 22.5004 7.49784C25.2953 7.49142 28.013 8.40375 30.2232 10.1064C32.3948 11.7704 33.9753 14.0769 34.7399 16.6983L36.179 16.2807C35.3245 13.3509 33.5513 10.7681 31.1291 8.91132C28.6555 7.00955 25.6165 5.98799 22.494 5.99441C14.6428 5.99441 8.25 12.3808 8.25 20.2384C8.25 28.0961 14.6364 34.4824 22.494 34.4824C26.1562 34.4824 29.677 33.0689 32.3241 30.5375C32.5682 30.3962 32.7867 30.2099 32.9602 29.985C33.0373 29.8886 33.1015 29.7858 33.1529 29.6766C35.4659 27.0745 36.738 23.7207 36.7316 20.2448C36.7316 19.4482 36.6673 18.6579 36.5324 17.8741L35.0547 18.1246V18.1182ZM33.6733 25.404C33.7119 25.5261 33.6926 25.661 33.6219 25.7703C33.3649 26.1044 32.7738 26.1686 32.2727 25.918C29.934 24.7423 27.2484 24.4403 24.7042 25.0635H24.6913C23.9011 25.2627 23.1301 25.5454 22.4041 25.918C21.9029 26.1686 21.3118 26.1044 21.0548 25.7703C20.9906 25.661 20.9713 25.5261 21.0034 25.404C21.0612 25.1535 21.2797 24.8065 21.723 24.5817C25.2567 22.802 29.42 22.802 32.9537 24.5817C33.3971 24.8065 33.6155 25.1535 33.6733 25.404ZM31.4824 16.4991C31.4824 18.7093 30.2681 20.746 28.3214 21.7868C26.8244 21.684 25.321 21.8189 23.8689 22.1852C24.0553 21.8189 24.1645 21.4078 24.1709 20.9966C24.1709 20.4055 23.9268 19.9236 23.7147 19.4931C23.6248 19.3261 23.5477 19.1462 23.477 18.9663C23.4449 18.8635 23.4192 18.7543 23.3999 18.6515C24.5885 19.8015 26.4903 19.7694 27.6403 18.5808C28.7904 17.3922 28.7583 15.4904 27.5697 14.3404C26.3811 13.1903 24.4793 13.2224 23.3292 14.411C22.7895 14.97 22.4876 15.7153 22.4876 16.4927V16.5248C22.2177 16.3128 21.9222 16.1265 21.6138 15.9787C21.4339 15.8888 21.2604 15.7924 21.0934 15.6832C21.0484 15.651 20.997 15.6061 20.9456 15.5611C22.7124 14.9636 23.6569 13.049 23.053 11.2821C23.0273 11.205 22.9951 11.1215 22.963 11.0444C23.7533 10.6782 24.6142 10.4918 25.4816 10.4918C28.7904 10.4918 31.476 13.1775 31.476 16.4863L31.4824 16.4991ZM23.9846 16.4991C23.9846 15.6703 24.6528 15.0021 25.4816 15.0021C26.3104 15.0021 26.9786 15.6703 26.9786 16.4991C26.9786 17.3279 26.3104 17.9961 25.4816 17.9961C24.6528 17.9961 23.9846 17.3215 23.9846 16.4991ZM19.8598 10.5047C20.8942 10.5047 21.7359 11.3464 21.7359 12.3808C21.7359 13.4152 20.8942 14.2568 19.8598 14.2568C18.8254 14.2568 17.9837 13.4152 17.9837 12.3808C17.9837 11.3464 18.8254 10.5111 19.8598 10.5047ZM16.1141 12.7534C16.249 12.7534 16.3839 12.7663 16.5124 12.7984C16.6281 13.7428 17.1421 14.5909 17.913 15.137C17.6304 16.1329 16.5959 16.7111 15.6001 16.4349C14.6042 16.1522 14.026 15.1178 14.3023 14.1219C14.5271 13.3124 15.266 12.7534 16.1077 12.7534H16.1141ZM17.2384 26.0594C16.9557 26.0594 16.6795 26.0915 16.4032 26.1365C16.0691 26.1879 15.7607 26.2328 15.5615 26.1686C15.3431 26.0979 15.1182 25.8731 14.8741 25.6353C14.6877 25.4426 14.4822 25.2563 14.2637 25.0956C14.0388 24.9414 13.8011 24.8001 13.557 24.678C13.255 24.5238 12.9723 24.3761 12.8438 24.1962C12.7153 24.0227 12.6639 23.7079 12.6061 23.3738C12.5675 23.1039 12.5097 22.8341 12.4262 22.5707C12.3362 22.3201 12.227 22.0695 12.1049 21.8382C11.9507 21.5362 11.803 21.2471 11.803 21.0094C11.803 20.7717 11.9507 20.4826 12.0985 20.1806C12.227 19.9429 12.3298 19.6987 12.4198 19.4482C12.4969 19.1847 12.5611 18.9149 12.5997 18.645C12.6575 18.3109 12.7089 17.9961 12.8374 17.8227C12.9659 17.6428 13.255 17.495 13.5505 17.3408C13.6533 17.283 13.7626 17.2316 13.8718 17.1673C15.266 18.4009 17.3926 18.2788 18.6326 16.8846C18.8639 16.6212 19.0567 16.3257 19.198 16.0044C19.3394 16.1201 19.4743 16.2486 19.6028 16.3771C19.7891 16.5698 19.9947 16.7561 20.2132 16.9167C20.438 17.0709 20.6758 17.2123 20.9199 17.3344C21.2219 17.4886 21.5046 17.6363 21.6331 17.8162C21.7616 17.9897 21.813 18.3045 21.8708 18.6386C21.9093 18.9085 21.9672 19.1783 22.0507 19.4417C22.1406 19.6923 22.2499 19.9429 22.3719 20.1742C22.5261 20.4826 22.6739 20.7653 22.6739 21.003C22.6739 21.2407 22.5261 21.5298 22.3784 21.8318C22.2499 22.0695 22.1471 22.3137 22.0571 22.5642C22.0314 22.6413 22.0057 22.7249 21.9864 22.8212C21.6716 22.9497 21.3632 23.0975 21.0548 23.2517C20.2838 23.6436 19.7184 24.3247 19.5514 25.0828C19.5 25.3012 19.4872 25.5261 19.5064 25.7446C19.3073 25.9437 19.1145 26.1108 18.9282 26.1686C18.729 26.2328 18.4142 26.1879 18.0865 26.1365C17.8103 26.0915 17.5276 26.0594 17.2513 26.0594H17.2384ZM30.4223 29.2204C27.3191 27.6592 23.6505 27.6528 20.5473 29.2204C20.0461 29.471 19.455 29.4068 19.198 29.0727C19.1338 28.9634 19.1145 28.8285 19.1466 28.7064C19.2045 28.4559 19.4229 28.1089 19.8662 27.8841C20.2003 27.717 20.5408 27.5628 20.8878 27.4215C21.6074 27.6656 22.3976 27.6078 23.0722 27.2608C23.6633 26.9589 24.2866 26.7276 24.929 26.5605C25.3467 26.5412 25.7707 26.5477 26.1883 26.5669C27.8973 26.6633 29.5678 27.1131 31.0969 27.8841C31.5403 28.1089 31.7587 28.4559 31.8165 28.7064C31.8294 28.7707 31.8358 28.8349 31.8294 28.8992C31.7009 29.0341 31.5724 29.169 31.4375 29.304C31.1034 29.4132 30.7307 29.3875 30.4159 29.2204H30.4223Z" fill="#FF7000"/>
<path id="Vector_4" d="M43.4758 0V7.49786H41.2271V0H39.7301V7.49786H37.4814V0H35.9844V12.3679C35.9844 13.6465 36.9096 14.7387 38.1688 14.9572L37.4942 37.3094C37.4942 37.3672 37.4942 37.425 37.4942 37.4829C37.4942 39.1405 38.837 40.4833 40.4947 40.4833C42.1523 40.4833 43.4951 39.1405 43.4951 37.4829C43.4951 37.425 43.4951 37.3672 43.4951 37.3094L43.3409 32.208L41.8439 32.253L41.9981 37.3608C41.9981 37.3608 41.9981 37.3736 41.9981 37.3801C41.9981 37.4122 41.9981 37.4443 41.9981 37.47C41.9981 38.2988 41.3299 38.967 40.5011 38.967C39.6723 38.967 39.0041 38.2988 39.0041 37.47C39.0041 37.4379 39.0041 37.4058 39.0041 37.3801C39.0041 37.3736 39.0041 37.3672 39.0041 37.3608L39.6851 14.9893H41.317L41.7925 30.756L43.2895 30.711L42.814 14.9572C44.0733 14.7387 44.9921 13.6465 44.9985 12.3679V0H43.5015H43.4758ZM43.4758 12.3679C43.4758 12.9911 42.9747 13.4923 42.3515 13.4923H38.6057C37.9825 13.4923 37.4814 12.9911 37.4814 12.3679V8.99486H43.4758V12.3679Z" fill="#FF7000"/>
<path id="Vector_5" d="M6.79112 14.1284C8.24315 12.8819 9.21331 10.4083 9.21331 7.49786C9.21331 3.29597 7.18946 0 4.60665 0C2.02384 0 0 3.29597 0 7.49786C0 10.267 0.873786 12.6378 2.21017 13.9356L2.04312 19.4674L3.54012 19.5124L3.68147 14.8479C4.20831 15.015 4.7737 15.0343 5.30697 14.9058L5.98801 37.3608C5.98801 37.3608 5.98801 37.3736 5.98801 37.3801C5.98801 37.4122 5.98801 37.4443 5.98801 37.47C5.98801 38.2988 5.31982 38.967 4.491 38.967C3.66219 38.967 2.994 38.2988 2.994 37.47C2.994 37.4379 2.994 37.4058 2.994 37.3801C2.994 37.3736 2.994 37.3672 2.994 37.3608L3.48872 21.0094L1.99172 20.9645L1.497 37.3094C1.497 37.3672 1.497 37.425 1.497 37.4829C1.497 39.1405 2.83981 40.4833 4.49743 40.4833C6.15505 40.4833 7.49786 39.1405 7.49786 37.4829C7.49786 37.425 7.49786 37.3672 7.49786 37.3094L6.79754 14.1284H6.79112ZM1.497 7.49786C1.497 3.91276 3.10323 1.50343 4.60023 1.50343C6.09723 1.50343 7.70345 3.91276 7.70345 7.49786C7.70345 11.083 6.09723 13.4923 4.60023 13.4923C3.10323 13.4923 1.497 11.083 1.497 7.49786Z" fill="#FF7000"/>
<path id="Vector_6" d="M14.2808 19.2512L13.5312 21.5004L14.9515 21.9736L15.701 19.7244L14.2808 19.2512Z" fill="#FF7000"/>
<path id="Vector_7" d="M18.4992 22.5348L16.25 23.2843L16.7233 24.7045L18.9725 23.955L18.4992 22.5348Z" fill="#FF7000"/>
<path id="Vector_8" d="M18.4007 18.87L17.5703 20.1156L19.8209 21.616L20.6513 20.3704L18.4007 18.87Z" fill="#FF7000"/>
</g>
</svg>
