<svg width="34" height="40" viewBox="0 0 34 40" fill="none" xmlns="http://www.w3.org/2000/svg">
<g id="Group">
<path id="Vector" d="M1.57031 19.1026C1.63862 18.7424 1.72557 18.3884 1.82493 18.0406C1.72557 18.4071 1.63862 18.761 1.57031 19.1026Z" fill="#1572FB"/>
<path id="Vector_2" d="M2.03146 17.3079C1.95072 17.5501 1.88862 17.7923 1.82031 18.0407C1.88241 17.8047 1.95694 17.5563 2.03146 17.3079Z" fill="#1572FB"/>
<path id="Vector_3" d="M1.42969 19.792C1.46695 19.5746 1.51042 19.3449 1.56631 19.1027C1.52284 19.3324 1.46695 19.556 1.42969 19.792Z" fill="#1572FB"/>
<path id="Vector_4" d="M1.23576 21.5184C1.21713 21.7296 1.21094 21.9345 1.21094 22.1457C1.21094 22.0277 1.21092 21.8165 1.23576 21.5184Z" fill="#1572FB"/>
<g id="Group_2">
<path id="Vector_5" d="M21.7895 8.00498H11.7538C11.4123 8.00498 11.1328 7.72552 11.1328 7.38396C11.1328 7.0424 11.4123 6.76294 11.7538 6.76294H21.7895C22.1311 6.76294 22.4106 7.0424 22.4106 7.38396C22.4106 7.72552 22.1311 8.00498 21.7895 8.00498Z" fill="#1572FB"/>
<path id="Vector_6" d="M16.8235 40C7.54541 40 0 32.4546 0 23.1827V23.0772C0 22.8412 0.00621552 22.6176 0.0248462 22.3816C0.0248462 22.3319 0.0248394 22.2264 0.0372598 22.1084C0.04347 21.9717 0.0620991 21.8289 0.0745196 21.6861L0.0931495 21.4936C0.11178 21.3135 0.136624 21.1147 0.173885 20.9036L0.198732 20.7359C0.211152 20.68 0.217349 20.6179 0.223559 20.5558C0.385024 19.6056 0.602393 18.7114 0.875643 17.873C0.925325 17.7115 0.98742 17.5439 1.04331 17.3762C1.25446 16.8048 1.44697 16.3453 1.63949 15.9168C1.67054 15.8485 1.70159 15.7802 1.73885 15.7181C2.29777 14.5505 3.8255 12.5012 3.8876 12.4142C4.84398 11.2653 5.92454 10.2717 7.1169 9.4271C7.21006 9.35879 7.31564 9.28427 7.415 9.22217L7.4833 9.17248C8.272 8.58872 8.70051 7.99875 8.74398 7.43362C8.77503 6.9927 8.5763 6.53314 8.14159 6.06738C7.65719 5.86244 7.2287 5.52708 6.91197 5.10479C6.91197 5.10479 6.90575 5.09859 6.89954 5.09238C6.8747 5.06753 6.85609 5.04269 6.83746 5.01785C6.44 4.47756 6.22885 3.8317 6.22885 3.1672C6.22885 1.40971 7.64477 0 9.38363 0H24.1826C25.9214 0 27.3374 1.41592 27.3374 3.15478C27.3374 3.86275 27.1014 4.54587 26.6729 5.09858C26.3748 5.48983 25.9773 5.80655 25.524 6.02391C25.0644 6.50831 24.8471 6.98028 24.8843 7.42741C24.9278 7.99254 25.3563 8.58252 26.1636 9.18491L25.8718 9.73762L26.2195 9.22217C26.3127 9.27806 26.4183 9.35258 26.5176 9.4271C27.7038 10.2655 28.7843 11.2591 29.7221 12.377C30.5915 13.4203 31.3243 14.5381 31.8895 15.7056C31.9267 15.7739 31.964 15.8485 31.995 15.923C32.113 16.1714 32.2248 16.4322 32.3304 16.7055C32.4235 16.9539 32.5043 17.1588 32.5726 17.3513C32.6409 17.5376 32.703 17.724 32.7589 17.9103L32.7899 18.0034C32.7899 18.0034 32.7962 18.0283 32.8024 18.0469L32.97 18.6369C32.9887 18.7052 33.0011 18.7362 33.0073 18.7673C33.0446 18.8915 33.0632 18.9784 33.0818 19.0716C33.1067 19.1585 33.1439 19.2951 33.1688 19.438C33.175 19.4814 33.1874 19.5311 33.1998 19.587C33.2184 19.6553 33.2309 19.7236 33.2433 19.792C33.2619 19.8727 33.2868 19.9845 33.3054 20.0963C33.3054 20.1149 33.3116 20.1273 33.3178 20.1459L33.3551 20.3571C33.3799 20.5061 33.411 20.6552 33.4296 20.7918C33.4731 21.0961 33.5041 21.3631 33.529 21.6053C33.5476 21.8041 33.5662 21.9531 33.5724 22.0897C33.6221 22.717 33.6159 23.1206 33.6159 23.1765C33.6159 32.4484 26.0705 39.9876 16.7986 39.9876L16.8235 40ZM4.86881 13.1843C4.86881 13.1843 3.34731 15.2337 2.85049 16.2832C2.83807 16.308 2.82564 16.3391 2.80701 16.3639C2.8008 16.3763 2.78839 16.4012 2.78218 16.426C2.58967 16.8421 2.41578 17.2768 2.21705 17.8047C2.16737 17.9475 2.11147 18.1028 2.06799 18.2518C1.81959 19.0405 1.61465 19.8789 1.4656 20.7421C1.4656 20.7918 1.44698 20.8663 1.43456 20.9346L1.40971 21.0899C1.37245 21.301 1.35382 21.4811 1.33519 21.6426L1.31656 21.8103C1.30414 21.9407 1.29173 22.0587 1.28552 22.1705C1.27931 22.2885 1.27309 22.3568 1.27309 22.4251C1.25446 22.6735 1.24826 22.8722 1.24826 23.071V23.1765C1.24826 31.7653 8.24096 38.7518 16.8297 38.7518C25.4184 38.7518 32.4049 31.7653 32.4049 23.1765V23.1641C32.4049 23.1641 32.4111 22.7915 32.3676 22.1767C32.3614 22.0463 32.349 21.9158 32.3304 21.7792C32.3055 21.5122 32.2683 21.2638 32.231 20.9843C32.2124 20.8601 32.1876 20.7235 32.1627 20.5807L32.1255 20.3819C32.1255 20.3819 32.113 20.3385 32.113 20.3136C32.1006 20.2267 32.082 20.1397 32.0571 20.059C32.0385 19.9783 32.0261 19.9286 32.0137 19.8789C31.995 19.8106 31.9826 19.7423 31.9702 19.674C31.9454 19.556 31.9205 19.4442 31.8895 19.3386C31.8708 19.233 31.8522 19.1834 31.8398 19.1337C31.8398 19.1337 31.8211 19.0778 31.8211 19.0716C31.8087 19.0281 31.7963 18.9908 31.7901 18.9598L31.6286 18.4071C31.6286 18.4071 31.6286 18.3947 31.6224 18.3885L31.5914 18.2891C31.5417 18.1276 31.4858 17.9537 31.4237 17.7798C31.3554 17.5873 31.2809 17.3948 31.2063 17.1961C31.0946 16.9228 30.9952 16.6806 30.8772 16.4322C30.8586 16.3888 30.8524 16.3639 30.8399 16.3453C30.8337 16.3329 30.8089 16.2894 30.8027 16.277C30.2748 15.1902 29.5979 14.1469 28.7844 13.1719C27.9149 12.1348 26.9151 11.2156 25.8097 10.4332C25.7227 10.3711 25.6358 10.3152 25.555 10.2655C25.5426 10.2655 25.4929 10.222 25.4867 10.2158C24.3254 9.3588 23.723 8.45831 23.6547 7.51436C23.5926 6.66977 23.9714 5.81897 24.7415 5.05512C24.8098 4.9868 24.8968 4.93712 24.9899 4.90607C25.2756 4.77565 25.5178 4.58313 25.7041 4.34094C25.9711 3.99937 26.114 3.58329 26.114 3.1672C26.114 2.09905 25.257 1.24204 24.2012 1.24204H9.40226C8.34652 1.24204 7.48952 2.09905 7.48952 3.15478C7.48952 3.54603 7.6013 3.91244 7.81245 4.22916C7.83729 4.254 7.86214 4.28505 7.88698 4.3161C8.09192 4.60798 8.39 4.83775 8.73156 4.96196C8.81851 4.99301 8.89304 5.04269 8.95514 5.10479C9.70037 5.85623 10.0668 6.69461 9.99845 7.53299C9.92393 8.47073 9.32775 9.365 8.21612 10.191L8.11054 10.2655C8.01739 10.3214 7.93665 10.3835 7.85592 10.4394C6.74429 11.2219 5.74445 12.1472 4.87502 13.1843H4.86881Z" fill="#1572FB"/>
<g id="Group_3">
<path id="Vector_7" d="M17.0286 26.7349C15.6499 26.7349 14.4886 25.9462 14.1967 24.8222C14.1098 24.4868 14.3147 24.1515 14.6439 24.0645C14.9792 23.9776 15.3146 24.1825 15.4015 24.5117C15.5443 25.0706 16.2461 25.4929 17.0286 25.4929C17.9291 25.4929 18.6867 24.9464 18.6867 24.3005C18.6867 23.6547 17.9291 23.1082 17.0286 23.1082C16.9913 23.1082 16.9478 23.1082 16.9106 23.0957C15.3891 23.0274 14.1719 21.9593 14.1719 20.6676C14.1719 19.3758 15.4698 18.2332 17.0721 18.2332C18.4507 18.2332 19.612 19.0218 19.9039 20.1459C19.9909 20.475 19.7921 20.8166 19.4568 20.9035C19.1214 20.9905 18.7861 20.7918 18.6991 20.4564C18.5563 19.8975 17.8545 19.4752 17.0721 19.4752C16.1716 19.4752 15.4139 20.0217 15.4139 20.6676C15.4139 21.3134 16.1716 21.8599 17.0721 21.8599C17.1093 21.8599 17.1528 21.8599 17.1901 21.8723C18.7116 21.9406 19.9288 23.0088 19.9288 24.3005C19.9288 25.5923 18.6308 26.7349 17.0286 26.7349Z" fill="#1572FB"/>
<path id="Vector_8" d="M17.0507 19.4752C16.7091 19.4752 16.4297 19.1957 16.4297 18.8542V17.1277C16.4297 16.7862 16.7091 16.5067 17.0507 16.5067C17.3923 16.5067 17.6717 16.7862 17.6717 17.1277V18.8542C17.6717 19.1957 17.3923 19.4752 17.0507 19.4752Z" fill="#1572FB"/>
<path id="Vector_9" d="M17.0507 28.4614C16.7091 28.4614 16.4297 28.1819 16.4297 27.8404V26.1139C16.4297 25.7724 16.7091 25.4929 17.0507 25.4929C17.3923 25.4929 17.6717 25.7724 17.6717 26.1139V27.8404C17.6717 28.1819 17.3923 28.4614 17.0507 28.4614Z" fill="#1572FB"/>
</g>
</g>
</g>
</svg>
