<svg width="25" height="25" viewBox="0 0 25 25" fill="none" xmlns="http://www.w3.org/2000/svg">
<circle opacity="0.1" cx="12.5" cy="12.5" r="12.5" fill="#FF6F00"/>
<path d="M7.74595 13.039L9.7709 9.72541C10.6737 8.24811 11.1251 7.50947 11.7062 7.25765C12.2135 7.03781 12.7893 7.03781 13.2966 7.25765C13.8777 7.50946 14.3291 8.24811 15.2319 9.7254L15.2319 9.72541L17.2569 13.039C18.2295 14.6305 18.7158 15.4263 18.6584 16.0819C18.6084 16.6535 18.3153 17.1761 17.8537 17.5168C17.3241 17.9076 16.3915 17.9076 14.5263 17.9076H10.4764C8.61125 17.9076 7.67866 17.9076 7.14913 17.5168C6.68748 17.1761 6.39439 16.6535 6.34439 16.0819C6.28704 15.4263 6.77334 14.6305 7.74595 13.039L7.74595 13.039Z" fill="#FF6F00"/>
<path d="M12.502 10.1768V13.6907" stroke="white" stroke-width="2" stroke-linejoin="round"/>
<path d="M12.502 14.7451V16.1507" stroke="white" stroke-width="2" stroke-linejoin="round"/>
</svg>
