<svg width="26" height="27" viewBox="0 0 26 27" fill="none" xmlns="http://www.w3.org/2000/svg">
    <circle cx="12.9999" cy="13.3309" r="12.9999" fill="#147CFC"/>
    <path d="M17 7H8.42857C8.19152 7 8 7.19152 8 7.42857V10.4286H17.4286V7.42857C17.4286 7.19152 17.2371 7 17 7ZM9.71429 9.25C9.4183 9.25 9.17857 9.01027 9.17857 8.71429C9.17857 8.4183 9.4183 8.17857 9.71429 8.17857C10.0103 8.17857 10.25 8.4183 10.25 8.71429C10.25 9.01027 10.0103 9.25 9.71429 9.25ZM8 18.5714C8 18.8085 8.19152 19 8.42857 19H17C17.2371 19 17.4286 18.8085 17.4286 18.5714V15.5714H8V18.5714ZM9.71429 16.75C10.0103 16.75 10.25 16.9897 10.25 17.2857C10.25 17.5817 10.0103 17.8214 9.71429 17.8214C9.4183 17.8214 9.17857 17.5817 9.17857 17.2857C9.17857 16.9897 9.4183 16.75 9.71429 16.75ZM8 14.7143H17.4286V11.2857H8V14.7143ZM9.71429 12.4643C10.0103 12.4643 10.25 12.704 10.25 13C10.25 13.296 10.0103 13.5357 9.71429 13.5357C9.4183 13.5357 9.17857 13.296 9.17857 13C9.17857 12.704 9.4183 12.4643 9.71429 12.4643Z" fill="white"/>
    </svg>
    