<svg width="25" height="26" viewBox="0 0 25 26" fill="none" xmlns="http://www.w3.org/2000/svg">
<circle cx="12.5" cy="12.833" r="12.5" fill="#FDD3DB"/>
<path d="M7.74595 13.372L9.7709 10.0584C10.6737 8.58112 11.1251 7.84247 11.7062 7.59066C12.2135 7.37082 12.7893 7.37082 13.2966 7.59066C13.8777 7.84247 14.3291 8.58112 15.2319 10.0584L15.2319 10.0584L17.2569 13.372C18.2295 14.9635 18.7158 15.7593 18.6584 16.4149C18.6084 16.9865 18.3153 17.5091 17.8537 17.8498C17.3241 18.2406 16.3915 18.2406 14.5263 18.2406H10.4764C8.61125 18.2406 7.67866 18.2406 7.14913 17.8498C6.68748 17.5091 6.39439 16.9865 6.34439 16.4149C6.28704 15.7593 6.77334 14.9635 7.74595 13.372L7.74595 13.372Z" fill="#ED113C"/>
<path d="M12.502 10.5098V14.0237" stroke="white" stroke-width="2" stroke-linejoin="round"/>
<path d="M12.502 15.0781V16.4837" stroke="white" stroke-width="2" stroke-linejoin="round"/>
</svg>
