<svg width="500" height="132" viewBox="0 0 500 132" fill="none" xmlns="http://www.w3.org/2000/svg">
<path d="M10.5859 79.4734V25.305C10.5859 24.4154 11.09 23.7234 11.9972 23.1303C12.9045 22.5373 13.9125 22.2407 15.0214 22.2407C16.1303 22.2407 17.2392 22.5373 18.1464 23.1303C19.0537 23.7234 19.5577 24.4154 19.5577 25.305V45.5687H33.0658C33.8722 45.5687 34.4771 45.9641 34.9811 46.6561C35.4851 47.348 35.6867 48.1388 35.6867 49.1272C35.6867 50.0169 35.4851 50.8076 34.9811 51.4996C34.4771 52.1915 33.8722 52.4881 33.0658 52.4881H19.4569V79.4734C19.4569 82.4389 20.1625 84.6135 21.473 85.7997C22.7835 86.9858 25.1021 87.5789 28.4287 87.5789H31.7553C32.965 87.5789 33.8722 87.9743 34.5779 88.7651C35.2835 89.5559 35.5859 90.4455 35.5859 91.5328C35.5859 92.6201 35.1827 93.6086 34.4771 94.3994C33.7714 95.1902 32.8642 95.5856 31.6545 95.5856H28.3279C16.5335 95.3879 10.5859 90.149 10.5859 79.4734Z" fill="white"/>
<path d="M38.8105 82.3399C38.8105 76.8044 40.9275 72.9494 45.2622 70.7747C49.5968 68.6001 55.746 67.5128 63.9113 67.5128H69.0525V65.2393C69.0525 61.6808 68.0444 58.6165 66.1291 56.0464C64.113 53.4764 61.1896 52.0925 57.2581 52.0925C54.2339 52.0925 51.613 52.5868 49.2944 53.6741C46.9759 54.7614 45.7662 55.2557 45.5646 55.2557C44.5565 55.2557 43.7501 54.7614 43.1452 53.8718C42.5404 52.8833 42.238 51.8949 42.238 50.9064C42.238 49.3248 43.8509 47.8421 47.0767 46.6559C50.3025 45.4698 53.8307 44.7778 57.4597 44.7778C64.5162 44.7778 69.6573 46.7548 72.9839 50.6098C76.3105 54.4649 78.0243 59.4073 78.0243 65.2393V92.2246C78.0243 93.1143 77.621 93.905 76.8146 94.4981C76.0081 95.0912 74.8992 95.3877 73.6896 95.3877C72.5807 95.3877 71.5726 95.0912 70.7662 94.4981C69.9597 93.905 69.5565 93.2131 69.5565 92.3235V88.2707C64.7178 93.6085 59.2743 96.2774 53.3267 96.2774C48.992 96.2774 45.5646 95.0912 42.8428 92.7189C40.121 90.3465 38.8105 86.8869 38.8105 82.3399ZM47.7823 81.4503C47.7823 84.1191 48.488 86.0961 50.0001 87.3811C51.5122 88.765 53.5283 89.4569 56.0484 89.4569C59.0726 89.4569 61.996 88.2707 64.8186 85.8984C67.6412 83.526 69.0525 81.0549 69.0525 78.5837V73.0482H65.3226C63.2057 73.0482 61.492 73.1471 59.9799 73.2459C58.4678 73.3448 56.9557 73.5424 55.3428 73.839C53.7299 74.1355 52.4194 74.6298 51.4114 75.2229C50.4033 75.8159 49.496 76.6067 48.8912 77.694C48.1855 78.6825 47.7823 79.8687 47.7823 81.4503Z" fill="white"/>
<path d="M88.4062 92.2249V18.4847C88.4062 17.5951 88.8095 16.8043 89.6159 16.31C90.4224 15.717 91.5313 15.4204 92.7409 15.4204C94.0514 15.4204 95.0595 15.717 95.9667 16.31C96.874 16.9031 97.2772 17.5951 97.2772 18.4847V52.8836C98.5877 50.6101 100.402 48.732 102.822 47.1504C105.241 45.5689 108.064 44.7781 111.289 44.7781C116.531 44.7781 121.068 46.7551 124.797 50.709C128.628 54.6629 130.443 59.4075 130.443 64.943V75.7174C130.443 81.0551 128.527 85.7998 124.797 89.9514C120.967 94.103 116.632 96.1788 111.592 96.1788C108.366 96.1788 105.443 95.388 102.721 93.7076C99.999 92.0272 97.9829 90.1491 96.7732 87.8756V92.1261C96.7732 93.0157 96.37 93.7076 95.5635 94.3995C94.7571 94.9926 93.749 95.388 92.7409 95.388C91.5313 95.388 90.5232 95.0915 89.6159 94.3995C88.8095 93.8065 88.4062 93.1145 88.4062 92.2249ZM97.378 78.584C97.378 80.3632 98.5877 82.3401 101.108 84.7125C103.628 87.0848 106.451 88.1721 109.576 88.1721C112.801 88.1721 115.624 86.8871 118.043 84.3171C120.463 81.7471 121.672 78.8805 121.672 75.7174V65.1407C121.672 61.9776 120.463 59.2098 118.043 56.6398C115.624 54.1686 112.701 52.8836 109.475 52.8836C106.249 52.8836 103.426 53.9709 101.007 56.2444C98.5877 58.5179 97.378 61.4833 97.378 65.1407V78.584Z" fill="white"/>
<path d="M140.424 92.2246V18.3856C140.424 17.4959 140.827 16.7052 141.634 16.2109C142.44 15.6178 143.549 15.3213 144.759 15.3213C146.069 15.3213 147.077 15.6178 147.984 16.2109C148.892 16.804 149.295 17.4959 149.295 18.3856V92.2246C149.295 93.0154 148.892 93.7074 147.984 94.3993C147.077 95.0912 146.069 95.3878 144.859 95.3878C143.65 95.3878 142.642 95.0912 141.734 94.3993C140.827 93.8062 140.424 93.1143 140.424 92.2246Z" fill="white"/>
<path d="M159.072 75.8159V64.745C159.072 59.3084 161.189 54.6626 165.322 50.7087C169.556 46.7548 174.496 44.7778 180.443 44.7778C185.988 44.7778 190.826 46.6559 194.959 50.3133C198.992 53.9706 201.109 58.6165 201.109 64.0531C201.109 66.1289 200.907 67.8093 200.403 68.9955C199.899 70.2805 199.092 71.1701 198.084 71.6643C197.076 72.1586 196.068 72.554 195.161 72.6528C194.254 72.7517 193.044 72.8505 191.532 72.8505H168.044V76.0136C168.044 79.8687 169.455 82.933 172.278 85.3053C175.1 87.5788 178.73 88.765 183.266 88.765C185.584 88.765 187.701 88.3696 189.415 87.6776C191.129 86.9857 192.54 86.2938 193.649 85.6018C194.758 84.9099 195.564 84.6134 196.27 84.6134C197.278 84.6134 198.084 85.0088 198.891 85.8984C199.596 86.788 200 87.6776 200 88.5673C200 90.1488 198.387 91.8292 195.161 93.5096C191.935 95.19 187.903 96.0797 183.064 96.0797C176.008 96.0797 170.363 94.2016 165.826 90.4454C161.29 86.8869 159.072 81.9445 159.072 75.8159ZM168.044 67.0185H187.903C189.717 67.0185 191.028 66.8208 191.633 66.3266C192.238 65.8323 192.641 64.9427 192.641 63.6577C192.641 60.4946 191.431 57.7269 189.113 55.3545C186.794 52.9822 183.871 51.796 180.443 51.796C177.117 51.796 174.193 52.8833 171.774 55.1568C169.355 57.3315 168.145 60.0992 168.145 63.3612V67.0185H168.044Z" fill="white"/>
<path d="M209.172 116.343V48.5338C209.172 47.6442 209.575 46.8534 210.382 46.3592C211.188 45.7661 212.196 45.4695 213.406 45.4695C214.615 45.4695 215.623 45.7661 216.43 46.3592C217.236 46.9523 217.64 47.6442 217.64 48.6327V52.982C218.95 50.7085 220.865 48.8304 223.285 47.2488C225.805 45.6672 228.728 44.8765 231.954 44.8765C237.297 44.8765 241.934 46.8534 245.664 50.8073C249.394 54.7612 251.309 59.5059 251.309 65.0414V75.8157C251.309 81.1535 249.394 85.8982 245.664 90.0498C241.833 94.2014 237.499 96.2772 232.458 96.2772C229.333 96.2772 226.41 95.4864 223.789 93.9048C221.168 92.3233 219.253 90.3463 218.043 87.974V116.442C218.043 117.233 217.64 117.925 216.732 118.617C215.825 119.309 214.817 119.605 213.607 119.605C212.398 119.605 211.39 119.309 210.482 118.617C209.575 117.925 209.172 117.233 209.172 116.343ZM218.043 78.5835C218.043 80.3627 219.253 82.3397 221.773 84.712C224.293 87.0843 227.015 88.1717 230.24 88.1717C233.466 88.1717 236.289 86.8867 238.809 84.3166C241.329 81.7466 242.539 78.88 242.539 75.7169V65.1402C242.539 61.9771 241.329 59.2093 238.809 56.6393C236.289 54.1681 233.466 52.8831 230.039 52.8831C226.914 52.8831 224.091 53.9704 221.672 56.2439C219.253 58.5174 218.043 61.4828 218.043 65.1402V78.5835Z" fill="white"/>
<path d="M258.266 75.8157V65.0414C258.266 59.6047 260.383 54.9589 264.516 50.9062C268.749 46.8534 273.689 44.8765 279.435 44.8765C285.181 44.8765 290.12 46.8534 294.354 50.9062C298.588 54.9589 300.705 59.6047 300.705 65.1402V75.9146C300.705 81.2523 298.588 85.997 294.354 90.1486C290.12 94.3002 285.181 96.376 279.435 96.376C273.79 96.376 268.85 94.3002 264.616 90.2475C260.383 85.997 258.266 81.2523 258.266 75.8157ZM267.237 75.8157C267.237 79.0777 268.447 82.0431 270.866 84.5143C273.286 86.9855 276.209 88.2705 279.435 88.2705C282.762 88.2705 285.685 86.9855 288.104 84.4155C290.524 81.8454 291.733 78.9788 291.733 75.8157V65.1402C291.733 61.9771 290.524 59.2093 288.104 56.6393C285.685 54.1681 282.762 52.8831 279.435 52.8831C276.108 52.8831 273.185 54.1681 270.766 56.6393C268.346 59.1105 267.137 61.9771 267.137 65.1402V75.8157H267.237Z" fill="white"/>
<path d="M309.477 92.2246V48.534C309.477 47.6444 309.88 46.8536 310.787 46.3594C311.694 45.7663 312.702 45.4697 313.912 45.4697C315.223 45.4697 316.231 45.7663 317.138 46.3594C318.045 46.9524 318.448 47.6444 318.448 48.534V92.2246C318.448 93.0154 318.045 93.7073 317.138 94.3992C316.231 95.0912 315.223 95.3877 314.013 95.3877C312.803 95.3877 311.795 95.0912 310.888 94.3992C309.981 93.8062 309.477 93.1142 309.477 92.2246Z" fill="white"/>
<path d="M329.133 92.2246V48.534C329.133 47.6444 329.536 46.8536 330.343 46.3594C331.149 45.7663 332.258 45.4698 333.467 45.4698C334.576 45.4698 335.484 45.7663 336.29 46.3594C337.097 46.9525 337.5 47.7433 337.5 48.534V52.8833C338.609 50.6098 340.524 48.7317 343.044 47.1502C345.564 45.5686 348.588 44.7778 351.915 44.7778C356.955 44.7778 361.391 46.7548 365.221 50.7087C368.951 54.6626 370.867 59.4073 370.867 64.9427V92.1258C370.867 93.1142 370.463 93.905 369.556 94.3993C368.649 94.9923 367.641 95.2889 366.431 95.2889C365.322 95.2889 364.314 94.9923 363.407 94.4981C362.5 93.905 362.097 93.2131 362.097 92.2246V65.1404C362.097 61.9773 360.887 59.1107 358.467 56.6395C356.048 54.0695 353.125 52.8833 349.899 52.8833C346.774 52.8833 344.052 54.0695 341.734 56.343C339.415 58.6165 338.205 61.5819 338.205 65.2393V92.3235C338.205 93.1143 337.701 93.8062 336.794 94.4981C335.887 95.19 334.778 95.4866 333.669 95.4866C332.459 95.4866 331.451 95.19 330.544 94.4981C329.637 93.8062 329.133 93.1143 329.133 92.2246Z" fill="white"/>
<path d="M381.049 79.4734V25.305C381.049 24.4154 381.553 23.7234 382.46 23.1303C383.367 22.5373 384.375 22.2407 385.484 22.2407C386.593 22.2407 387.702 22.5373 388.609 23.1303C389.517 23.7234 390.021 24.4154 390.021 25.305V45.5687H403.529C404.335 45.5687 404.94 45.9641 405.444 46.6561C405.948 47.348 406.15 48.1388 406.15 49.1272C406.15 50.0169 405.948 50.8076 405.444 51.4996C404.94 52.1915 404.335 52.4881 403.529 52.4881H390.021V79.4734C390.021 82.4389 390.726 84.6135 392.037 85.7997C393.347 86.9858 395.666 87.5789 398.992 87.5789H402.319C403.529 87.5789 404.436 87.9743 405.142 88.7651C405.847 89.5559 406.15 90.4455 406.15 91.5328C406.15 92.6201 405.746 93.6086 405.041 94.3994C404.335 95.1902 403.428 95.5856 402.218 95.5856H398.892C386.996 95.3879 381.049 90.149 381.049 79.4734Z" fill="white"/>
<path d="M409.881 75.8159V64.745C409.881 59.3084 411.998 54.6626 416.131 50.7087C420.365 46.7548 425.304 44.7778 431.252 44.7778C436.796 44.7778 441.635 46.6559 445.768 50.3133C449.8 53.9706 451.917 58.6165 451.917 64.0531C451.917 66.1289 451.716 67.8093 451.212 68.9955C450.708 70.2805 449.901 71.1701 448.893 71.6643C447.885 72.1586 446.877 72.554 445.97 72.6528C445.062 72.7517 443.853 72.8505 442.341 72.8505H418.853V76.0136C418.853 79.8687 420.264 82.933 423.087 85.3053C425.909 87.5788 429.538 88.765 434.074 88.765C436.393 88.765 438.51 88.3696 440.224 87.6776C441.937 86.9857 443.349 86.2938 444.457 85.6018C445.566 84.9099 446.373 84.6134 447.078 84.6134C448.087 84.6134 448.893 85.0088 449.699 85.8984C450.405 86.788 450.808 87.6776 450.808 88.5673C450.808 90.1488 449.195 91.8292 445.97 93.5096C442.744 95.19 438.712 96.0797 433.873 96.0797C426.816 96.0797 421.171 94.2016 416.635 90.4454C412.099 86.8869 409.881 81.9445 409.881 75.8159ZM418.752 67.0185H438.611C440.425 67.0185 441.736 66.8208 442.341 66.3266C442.945 65.8323 443.349 64.9427 443.349 63.6577C443.349 60.4946 442.139 57.7269 439.82 55.3545C437.502 52.9822 434.578 51.796 431.151 51.796C427.824 51.796 424.901 52.8833 422.482 55.1568C420.062 57.3315 418.853 60.0992 418.853 63.3612V67.0185H418.752Z" fill="white"/>
<path d="M459.779 92.2244V48.5338C459.779 47.6442 460.183 46.8534 460.989 46.3592C461.795 45.7661 462.904 45.4695 464.114 45.4695C465.223 45.4695 466.231 45.7661 467.037 46.3592C467.844 46.9523 468.247 47.6442 468.247 48.6327V53.6739C469.558 51.3015 471.473 49.2258 473.892 47.4465C476.412 45.7661 479.235 44.8765 482.259 44.8765H485.888C486.795 44.8765 487.602 45.2719 488.308 46.0626C489.013 46.8534 489.316 47.8419 489.316 48.9292C489.316 50.0165 489.013 50.9062 488.308 51.6969C487.602 52.4877 486.795 52.8831 485.888 52.8831H482.36C478.731 52.8831 475.505 54.3658 472.783 57.2324C470.062 60.099 468.751 63.8552 468.751 68.4022V92.3232C468.751 93.114 468.348 93.806 467.441 94.4979C466.533 95.1898 465.525 95.4864 464.316 95.4864C463.106 95.4864 462.098 95.1898 461.191 94.4979C460.283 93.806 459.779 93.114 459.779 92.2244Z" fill="white"/>
<path d="M313.911 11.9604C307.157 11.9604 301.814 17.2982 301.814 23.8221C301.814 30.3461 307.258 35.6838 313.911 35.6838C320.564 35.6838 326.008 30.3461 326.008 23.8221C326.008 17.2982 320.564 11.9604 313.911 11.9604Z" fill="#FF6F00"/>
</svg>
