<?xml version="1.0" encoding="utf-8"?>
<!-- Generator: Adobe Illustrator 25.2.3, SVG Export Plug-In . SVG Version: 6.00 Build 0)  -->
<svg version="1.1" id="Layer_1" xmlns="http://www.w3.org/2000/svg" xmlns:xlink="http://www.w3.org/1999/xlink" x="0px" y="0px"
	 viewBox="0 0 475.1 108.9" style="enable-background:new 0 0 475.1 108.9;" xml:space="preserve">
<style type="text/css">
	.st0{fill:#1A237E;}
	.st1{fill:#FFFFFF;}
	.st2{fill:#FF6F00;}
	.st3{fill:#1367C6;}
	.st4{fill:#147CFC;}
	.st5{fill:#43A4FD;}
	.st6{fill:#13399D;}
	.st7{fill:#0A4ED8;}
	.st8{fill:#A71B65;}
	.st9{fill:#CD203A;}
	.st10{fill:#406E64;}
	.st11{fill:#BDFDEC;}
	.st12{fill:url(#SVGID_1_);}
	.st13{fill:#737373;}
	.st14{fill:url(#SVGID_2_);}
	.st15{fill:url(#SVGID_3_);}
	.st16{fill:url(#SVGID_4_);}
	.st17{fill:url(#SVGID_5_);}
	.st18{fill:#F2F2F2;}
	.st19{fill:url(#SVGID_6_);}
	.st20{fill:url(#SVGID_7_);}
	.st21{fill:url(#SVGID_8_);}
	.st22{fill:none;}
</style>
<g>
	<path class="st0" d="M0,68.4V13.5c0-0.9,0.5-1.6,1.4-2.2c0.9-0.6,1.9-0.9,3-0.9c1.1,0,2.2,0.3,3.1,0.9c0.9,0.6,1.4,1.3,1.4,2.2
		v20.5h13.4c0.8,0,1.4,0.4,1.9,1.1c0.5,0.7,0.7,1.5,0.7,2.5c0,0.9-0.2,1.7-0.7,2.4c-0.5,0.7-1.1,1-1.9,1H8.8v27.3c0,3,0.7,5.2,2,6.4
		c1.3,1.2,3.6,1.8,6.9,1.8H21c1.2,0,2.1,0.4,2.8,1.2c0.7,0.8,1,1.7,1,2.8c0,1.1-0.4,2.1-1.1,2.9c-0.7,0.8-1.6,1.2-2.8,1.2h-3.3
		C5.9,84.5,0,79.1,0,68.4z"/>
	<path class="st0" d="M28,71.3c0-5.6,2.1-9.5,6.4-11.7c4.3-2.2,10.4-3.3,18.5-3.3h5.1v-2.3c0-3.6-1-6.7-2.9-9.3c-2-2.6-4.9-4-8.8-4
		c-3,0-5.6,0.5-7.9,1.6C36.2,43.4,35,44,34.7,44c-1,0-1.8-0.5-2.4-1.4c-0.6-1-0.9-2-0.9-3c0-1.6,1.6-3.1,4.8-4.3
		c3.2-1.2,6.7-1.9,10.3-1.9c7,0,12.1,2,15.4,5.9c3.3,3.9,5,8.9,5,14.8v27.3c0,0.9-0.4,1.7-1.2,2.3c-0.8,0.6-1.9,0.9-3.1,0.9
		c-1.1,0-2.1-0.3-2.9-0.9c-0.8-0.6-1.2-1.3-1.2-2.2v-4.1c-4.8,5.4-10.2,8.1-16.1,8.1c-4.3,0-7.7-1.2-10.4-3.6
		C29.4,79.3,28,75.8,28,71.3z M37,70.3c0,2.7,0.7,4.7,2.2,6c1.5,1.4,3.5,2.1,6,2.1c3,0,5.9-1.2,8.7-3.6c2.8-2.4,4.2-4.9,4.2-7.4
		v-5.6h-3.7c-2.1,0-3.8,0.1-5.3,0.2c-1.5,0.1-3,0.3-4.6,0.6c-1.6,0.3-2.9,0.8-3.9,1.4c-1,0.6-1.9,1.4-2.5,2.5
		C37.3,67.5,37,68.8,37,70.3z"/>
	<path class="st0" d="M77.3,81.3V6.7c0-0.9,0.4-1.7,1.2-2.2c0.8-0.6,1.9-0.9,3.1-0.9c1.3,0,2.3,0.3,3.2,0.9c0.9,0.6,1.3,1.3,1.3,2.2
		v34.8c1.3-2.3,3.1-4.2,5.5-5.8c2.4-1.6,5.2-2.4,8.4-2.4c5.2,0,9.7,2,13.4,6c3.8,4,5.6,8.8,5.6,14.4v10.9c0,5.4-1.9,10.2-5.6,14.4
		c-3.8,4.2-8.1,6.3-13.1,6.3c-3.2,0-6.1-0.8-8.8-2.5c-2.7-1.7-4.7-3.6-5.9-5.9v4.3c0,0.9-0.4,1.6-1.2,2.3c-0.8,0.6-1.8,1-2.8,1
		c-1.2,0-2.2-0.3-3.1-1C77.7,82.9,77.3,82.1,77.3,81.3z M86.1,67.5c0,1.8,1.2,3.8,3.7,6.2c2.5,2.4,5.3,3.5,8.4,3.5
		c3.2,0,6-1.3,8.4-3.9c2.4-2.6,3.6-5.5,3.6-8.7V53.8c0-3.2-1.2-6-3.6-8.6c-2.4-2.5-5.3-3.8-8.5-3.8c-3.2,0-6,1.1-8.4,3.4
		c-2.4,2.3-3.6,5.3-3.6,9V67.5z"/>
	<path class="st0" d="M128.8,81.3V6.6c0-0.9,0.4-1.7,1.2-2.2c0.8-0.6,1.9-0.9,3.1-0.9c1.3,0,2.3,0.3,3.2,0.9
		c0.9,0.6,1.3,1.3,1.3,2.2v74.7c0,0.8-0.4,1.5-1.3,2.2c-0.9,0.7-1.9,1-3.1,1c-1.2,0-2.2-0.3-3.1-1C129.3,82.9,128.8,82.1,128.8,81.3
		z"/>
	<path class="st0" d="M147.4,64.6V53.4c0-5.5,2.1-10.2,6.2-14.2c4.2-4,9.1-6,15-6c5.5,0,10.3,1.9,14.4,5.6c4,3.7,6.1,8.4,6.1,13.9
		c0,2.1-0.2,3.8-0.7,5c-0.5,1.3-1.3,2.2-2.3,2.7c-1,0.5-2,0.9-2.9,1c-0.9,0.1-2.1,0.2-3.6,0.2h-23.3V65c0,3.9,1.4,7,4.2,9.4
		c2.8,2.3,6.4,3.5,10.9,3.5c2.3,0,4.4-0.4,6.1-1.1c1.7-0.7,3.1-1.4,4.2-2.1c1.1-0.7,1.9-1,2.6-1c1,0,1.8,0.4,2.6,1.3
		c0.7,0.9,1.1,1.8,1.1,2.7c0,1.6-1.6,3.3-4.8,5c-3.2,1.7-7.2,2.6-12,2.6c-7,0-12.6-1.9-17.1-5.7C149.6,75.8,147.4,70.8,147.4,64.6z
		 M156.2,55.7h19.7c1.8,0,3.1-0.2,3.7-0.7c0.6-0.5,1-1.4,1-2.7c0-3.2-1.2-6-3.5-8.4c-2.3-2.4-5.2-3.6-8.6-3.6
		c-3.3,0-6.2,1.1-8.6,3.4c-2.4,2.2-3.6,5-3.6,8.3V55.7z"/>
	<path class="st0" d="M197,105.7V37c0-0.9,0.4-1.7,1.2-2.2c0.8-0.6,1.8-0.9,3-0.9c1.2,0,2.2,0.3,3,0.9c0.8,0.6,1.2,1.3,1.2,2.3v4.4
		c1.3-2.3,3.2-4.2,5.6-5.8c2.5-1.6,5.4-2.4,8.6-2.4c5.3,0,9.9,2,13.6,6c3.7,4,5.6,8.8,5.6,14.4v10.9c0,5.4-1.9,10.2-5.6,14.4
		c-3.8,4.2-8.1,6.3-13.1,6.3c-3.1,0-6-0.8-8.6-2.4c-2.6-1.6-4.5-3.6-5.7-6v28.8c0,0.8-0.4,1.5-1.3,2.2c-0.9,0.7-1.9,1-3.1,1
		c-1.2,0-2.2-0.3-3.1-1C197.5,107.3,197,106.5,197,105.7z M205.9,67.5c0,1.8,1.2,3.8,3.7,6.2c2.5,2.4,5.2,3.5,8.4,3.5
		c3.2,0,6-1.3,8.5-3.9c2.5-2.6,3.7-5.5,3.7-8.7V53.8c0-3.2-1.2-6-3.7-8.6c-2.5-2.5-5.3-3.8-8.7-3.8c-3.1,0-5.9,1.1-8.3,3.4
		c-2.4,2.3-3.6,5.3-3.6,9V67.5z"/>
	<path class="st0" d="M245.8,64.6V53.8c0-5.5,2.1-10.2,6.2-14.3c4.2-4.1,9.1-6.1,14.8-6.1c5.7,0,10.6,2,14.8,6.1
		c4.2,4.1,6.3,8.8,6.3,14.4v10.9c0,5.4-2.1,10.2-6.3,14.4c-4.2,4.2-9.1,6.3-14.8,6.3c-5.6,0-10.5-2.1-14.7-6.2
		C247.8,74.9,245.8,70.1,245.8,64.6z M254.6,64.6c0,3.3,1.2,6.3,3.6,8.8c2.4,2.5,5.3,3.8,8.5,3.8c3.3,0,6.2-1.3,8.6-3.9
		c2.4-2.6,3.6-5.5,3.6-8.7V53.8c0-3.2-1.2-6-3.6-8.6c-2.4-2.5-5.3-3.8-8.6-3.8c-3.3,0-6.2,1.3-8.6,3.8c-2.4,2.5-3.6,5.4-3.6,8.6
		V64.6z"/>
	<path class="st0" d="M296.6,81.3V37c0-0.9,0.4-1.7,1.3-2.2c0.9-0.6,1.9-0.9,3.1-0.9c1.3,0,2.3,0.3,3.2,0.9c0.9,0.6,1.3,1.3,1.3,2.2
		v44.2c0,0.8-0.4,1.5-1.3,2.2c-0.9,0.7-1.9,1-3.1,1c-1.2,0-2.2-0.3-3.1-1C297,82.9,296.6,82.1,296.6,81.3z"/>
	<path class="st0" d="M316.1,81.3V37c0-0.9,0.4-1.7,1.2-2.2c0.8-0.6,1.9-0.9,3.1-0.9c1.1,0,2,0.3,2.8,0.9c0.8,0.6,1.2,1.4,1.2,2.2
		v4.4c1.1-2.3,3-4.2,5.5-5.8c2.5-1.6,5.5-2.4,8.8-2.4c5,0,9.4,2,13.2,6c3.7,4,5.6,8.8,5.6,14.4v27.5c0,1-0.4,1.8-1.3,2.3
		c-0.9,0.6-1.9,0.9-3.1,0.9c-1.1,0-2.1-0.3-3-0.8c-0.9-0.6-1.3-1.3-1.3-2.3V53.8c0-3.2-1.2-6.1-3.6-8.6c-2.4-2.6-5.3-3.8-8.5-3.8
		c-3.1,0-5.8,1.2-8.1,3.5c-2.3,2.3-3.5,5.3-3.5,9v27.4c0,0.8-0.5,1.5-1.4,2.2c-0.9,0.7-2,1-3.1,1c-1.2,0-2.2-0.3-3.1-1
		C316.5,82.9,316.1,82.1,316.1,81.3z"/>
	<path class="st0" d="M367.6,68.4V13.5c0-0.9,0.5-1.6,1.4-2.2c0.9-0.6,1.9-0.9,3-0.9c1.1,0,2.2,0.3,3.1,0.9c0.9,0.6,1.4,1.3,1.4,2.2
		v20.5h13.4c0.8,0,1.4,0.4,1.9,1.1c0.5,0.7,0.7,1.5,0.7,2.5c0,0.9-0.2,1.7-0.7,2.4c-0.5,0.7-1.1,1-1.9,1h-13.4v27.3
		c0,3,0.7,5.2,2,6.4c1.3,1.2,3.6,1.8,6.9,1.8h3.3c1.2,0,2.1,0.4,2.8,1.2c0.7,0.8,1,1.7,1,2.8c0,1.1-0.4,2.1-1.1,2.9
		c-0.7,0.8-1.6,1.2-2.8,1.2h-3.3C373.5,84.5,367.6,79.1,367.6,68.4z"/>
	<path class="st0" d="M396.1,64.6V53.4c0-5.5,2.1-10.2,6.2-14.2c4.2-4,9.1-6,15-6c5.5,0,10.3,1.9,14.4,5.6c4,3.7,6.1,8.4,6.1,13.9
		c0,2.1-0.2,3.8-0.7,5c-0.5,1.3-1.3,2.2-2.3,2.7c-1,0.5-2,0.9-2.9,1c-0.9,0.1-2.1,0.2-3.6,0.2H405V65c0,3.9,1.4,7,4.2,9.4
		c2.8,2.3,6.4,3.5,10.9,3.5c2.3,0,4.4-0.4,6.1-1.1c1.7-0.7,3.1-1.4,4.2-2.1c1.1-0.7,1.9-1,2.6-1c1,0,1.8,0.4,2.6,1.3
		c0.7,0.9,1.1,1.8,1.1,2.7c0,1.6-1.6,3.3-4.8,5c-3.2,1.7-7.2,2.6-12,2.6c-7,0-12.6-1.9-17.1-5.7C398.3,75.8,396.1,70.8,396.1,64.6z
		 M405,55.7h19.7c1.8,0,3.1-0.2,3.7-0.7c0.6-0.5,1-1.4,1-2.7c0-3.2-1.2-6-3.5-8.4c-2.3-2.4-5.2-3.6-8.6-3.6c-3.3,0-6.2,1.1-8.6,3.4
		c-2.4,2.2-3.6,5-3.6,8.3V55.7z"/>
	<path class="st0" d="M445.7,81.3V37c0-0.9,0.4-1.7,1.2-2.2c0.8-0.6,1.9-0.9,3.1-0.9c1.1,0,2.1,0.3,2.9,0.9c0.8,0.6,1.2,1.3,1.2,2.3
		v5.1c1.3-2.4,3.2-4.5,5.6-6.3c2.5-1.7,5.3-2.6,8.3-2.6h3.6c0.9,0,1.7,0.4,2.4,1.2c0.7,0.8,1,1.8,1,2.9c0,1.1-0.3,2-1,2.8
		c-0.7,0.8-1.5,1.2-2.4,1.2h-3.6c-3.6,0-6.8,1.5-9.5,4.4c-2.7,2.9-4,6.7-4,11.3v24.2c0,0.8-0.4,1.5-1.3,2.2c-0.9,0.7-1.9,1-3.1,1
		c-1.2,0-2.2-0.3-3.1-1C446.1,82.9,445.7,82.1,445.7,81.3z"/>
	<path class="st2" d="M300.9,0c-6.7,0-12,5.4-12,12s5.4,12,12,12s12-5.4,12-12S307.6,0,300.9,0z"/>
</g>
</svg>
