<svg id="Layer_1" data-name="Layer 1" xmlns="http://www.w3.org/2000/svg" viewBox="0 0 100 100"><defs><style>.cls-1{fill:#1a237e;}.cls-2{fill:#ff6f00;}</style></defs><path class="cls-1" d="M50,2A48,48,0,1,0,98,50,48,48,0,0,0,50,2Z"/><path class="cls-2" d="M23.4,60.25V17.89a2,2,0,0,1,1.07-1.69,4.09,4.09,0,0,1,2.3-.7,4.26,4.26,0,0,1,2.39.7,2,2,0,0,1,1.07,1.69V33.68H40.59a1.74,1.74,0,0,1,1.48.82,3.18,3.18,0,0,1,.58,1.89,3,3,0,0,1-.58,1.86,1.75,1.75,0,0,1-1.48.78H30.23v21c0,2.34.5,4,1.52,4.93s2.78,1.43,5.31,1.43h2.55a2.75,2.75,0,0,1,2.18.9,3.22,3.22,0,0,1,.78,2.18,3.28,3.28,0,0,1-.83,2.23,2.68,2.68,0,0,1-2.13.94H37.06Q23.39,72.67,23.4,60.25Z"/><path class="cls-2" d="M46.75,88.07V35.88a2,2,0,0,1,.94-1.7A4,4,0,0,1,50,33.53a3.69,3.69,0,0,1,2.26.66,2,2,0,0,1,.9,1.73v3.37a12.36,12.36,0,0,1,4.29-4.44A12,12,0,0,1,64,33.05a13.59,13.59,0,0,1,10.34,4.57,15.62,15.62,0,0,1,4.25,11v8.27a15.91,15.91,0,0,1-4.29,10.94,13.06,13.06,0,0,1-10,4.78,12.11,12.11,0,0,1-6.53-1.84,11.62,11.62,0,0,1-4.33-4.56V88.06a2.16,2.16,0,0,1-1,1.67,3.88,3.88,0,0,1-2.39.77,3.76,3.76,0,0,1-2.35-.73A2.11,2.11,0,0,1,46.75,88.07Zm6.73-29c0,1.34.93,2.92,2.8,4.71a8.9,8.9,0,0,0,6.36,2.7,8.66,8.66,0,0,0,6.44-2.94,9.39,9.39,0,0,0,2.79-6.64V48.63a9.16,9.16,0,0,0-2.79-6.52,8.9,8.9,0,0,0-12.89-.29,9,9,0,0,0-2.71,6.81Z"/></svg>