<svg width="48" height="48" viewBox="0 0 48 48" fill="none" xmlns="http://www.w3.org/2000/svg">
<g clip-path="url(#clip0_1293_295)">
<path d="M38.3682 17.6518C39.3918 16.2179 40.0003 14.4675 40.0003 12.5715C40.0003 7.73241 36.0775 3.80963 31.2384 3.80963C31.1667 3.80963 31.0972 3.81863 31.0259 3.82041C29.5313 1.52259 26.9456 0 24.0002 0C20.5834 0 17.6494 2.04778 16.3445 4.98047C11.1081 6.34838 7.23828 11.0969 7.23828 16.7619C7.23828 19.8767 8.41625 22.7094 10.3384 24.8644C10.3052 25.2069 10.2858 25.5535 10.2858 25.9048C10.2858 31.7959 15.0614 36.5715 20.9525 36.5715C21.5946 36.5715 24.1517 36.5142 24.762 36.4047L25.0202 33.7647C26.5295 34.5827 28.2581 35.0477 30.0953 35.0477C35.9863 35.0477 40.762 30.2721 40.762 24.381C40.7622 21.8287 39.8633 19.4877 38.3682 17.6518Z" fill="#1FBF5F"/>
<path d="M24.7621 32.5621C23.5396 32.8775 22.186 32.8669 20.7392 32.1835C18.7798 31.2581 17.36 29.3772 17.1677 27.2189C17.0922 26.3711 17.1928 25.5565 17.4344 24.805C17.5294 24.5095 17.4072 24.1957 17.1672 23.9988C15.2941 22.4625 14.0954 20.1353 14.0954 17.5238C14.0954 14.1348 16.1107 11.2237 19.0053 9.90394C19.3074 9.76622 19.5022 9.46594 19.4687 9.13566C19.4436 8.88731 19.4288 8.63597 19.4288 8.38088C19.4288 4.41169 22.1911 1.09481 25.8961 0.228C25.2858 0.08625 24.6539 0 24.0002 0C20.5834 0 17.6494 2.04778 16.3445 4.98047C11.1081 6.34838 7.23828 11.0969 7.23828 16.7619C7.23828 19.8767 8.41625 22.7094 10.3384 24.8644C10.3052 25.2069 10.2858 25.5535 10.2858 25.9048C10.2858 31.7959 15.0614 36.5715 20.9525 36.5715C21.5946 36.5715 24.1517 36.5142 24.762 36.4047V34.0764V32.5621H24.7621Z" fill="#1FBF5F"/>
<path d="M23.2385 32.7619C23.214 32.7619 23.1905 32.7585 23.1661 32.7583L22.4766 47.2381H27.048L26.3733 33.0703C26.3491 32.5627 25.8411 32.1968 25.3655 32.3756C24.7036 32.6244 23.9876 32.7619 23.2385 32.7619Z" fill="#AF6E5A"/>
<path d="M26.3733 33.0703C26.3491 32.5627 25.8411 32.1968 25.3655 32.3756C24.7036 32.6244 23.9876 32.762 23.2385 32.762C23.214 32.762 23.1905 32.7586 23.1661 32.7583L22.4766 47.2382H24.7623V34.8349C24.7623 34.5069 24.9722 34.2158 25.2833 34.1121L26.4052 33.7381L26.3733 33.0703Z" fill="#965A50"/>
<path d="M28.5724 47.9999H20.9533C20.5326 47.9999 20.1914 47.6591 20.1914 47.238C20.1914 46.8169 20.5326 46.4761 20.9533 46.4761H28.5724C28.9931 46.4761 29.3343 46.8169 29.3343 47.238C29.3343 47.6591 28.9931 47.9999 28.5724 47.9999Z" fill="#1FBF5F"/>
</g>
<defs>
<clipPath id="clip0_1293_295">
<rect width="48" height="48" fill="white"/>
</clipPath>
</defs>
</svg>
