<svg width="250" height="250" viewBox="0 0 250 250" fill="none" xmlns="http://www.w3.org/2000/svg">
<g id="Group">
<path id="Vector" d="M125 250C194.036 250 250 194.036 250 125C250 55.9644 194.036 0 125 0C55.9644 0 0 55.9644 0 125C0 194.036 55.9644 250 125 250Z" fill="#BCFFD7"/>
<path id="Vector_2" d="M173.321 131.828H183.678L167.501 102.731H177.837L154.098 59.9791L136.304 91.9959L124.98 71.6178L113.657 91.9959L95.8625 59.9791L72.123 102.731H82.4802L66.3037 131.828H76.6609L60.4844 160.924H87.3962V181.303H92.7323V172.563H122.312V190.021H127.648V172.563H157.228V181.303H162.564V160.924H189.455L173.278 131.828H173.321ZM174.581 126.492H145.106L138.384 114.37H148.72L144.518 106.786L146.808 102.71H161.388L174.602 126.471L174.581 126.492ZM145.484 138.13H104.497L117.69 114.37H132.27L145.484 138.13ZM154.098 70.9665L168.762 97.3741H139.413L154.098 70.9665ZM125.001 82.6052L139.665 109.013H110.316L125.001 82.6052ZM81.2197 97.3741L95.9045 70.9665L110.568 97.3741H81.2197ZM75.4004 126.471L88.6146 102.71H103.194L105.463 106.786L101.262 114.349H111.619L104.875 126.471H75.4004ZM69.581 155.567L82.7953 131.807H101.913L95.4424 143.446H105.779L99.0348 155.567H69.56H69.581ZM98.6987 167.206L111.913 143.446H138.131L151.346 167.206H98.7197H98.6987ZM150.968 155.567L144.245 143.446H154.581L148.11 131.807H167.228L180.442 155.567H150.968Z" fill="#00C451"/>
</g>
</svg>
