<svg width="40" height="40" viewBox="0 0 40 40" fill="none" xmlns="http://www.w3.org/2000/svg">
<g id="Group 4662">
<path id="Vector" d="M34.7076 22.1002H37.8934L32.9176 13.1502H36.0969L28.7948 0L23.3215 9.84814L19.8385 3.57997L16.3554 9.84814L10.8821 0L3.57997 13.1502H6.76575L1.78998 22.1002H4.97577L0 31.0501H8.27787V37.3183H9.91922V34.63H19.0178V40H20.6591V34.63H29.7577V37.3183H31.399V31.0501H39.6704L34.6947 22.1002H34.7076ZM35.0953 20.4588H26.0291L23.9612 16.7302H27.1405L25.8481 14.3974L26.5525 13.1438H31.0372L35.1018 20.4523L35.0953 20.4588ZM26.1454 24.0388H13.538L17.5961 16.7302H22.0808L26.1454 24.0388ZM28.7948 3.37964L33.3053 11.5024H24.2779L28.7948 3.37964ZM19.8449 6.95961L24.3554 15.0824H15.3279L19.8449 6.95961ZM6.37803 11.5024L10.895 3.37964L15.4055 11.5024H6.37803ZM4.58804 20.4523L8.65266 13.1438H13.1373L13.8352 14.3974L12.5428 16.7237H15.7286L13.6543 20.4523H4.58804ZM2.79806 29.4023L6.86268 22.0937H12.7431L10.7528 25.6737H13.9322L11.8578 29.4023H2.7916H2.79806ZM11.7544 32.9822L15.8191 25.6737H23.8837L27.9483 32.9822H11.7609H11.7544ZM27.832 29.4023L25.7641 25.6737H28.9435L26.9531 22.0937H32.8336L36.8982 29.4023H27.832Z" fill="#00C451"/>
</g>
</svg>
